<?xml version="1.0" encoding="UTF-8"?>
<svg id="_レイヤー_1" data-name="レイヤー 1" xmlns="http://www.w3.org/2000/svg" xmlns:xlink="http://www.w3.org/1999/xlink" version="1.1" viewBox="0 0 420 196">
  <defs>
    <style>
      .cls-1 {
        clip-path: url(#clippath);
      }

      .cls-2 {
        fill: none;
      }

      .cls-2, .cls-3, .cls-4 {
        stroke-width: 0px;
      }

      .cls-5 {
        clip-path: url(#clippath-1);
      }

      .cls-6 {
        clip-path: url(#clippath-2);
      }

      .cls-3 {
        fill: #ff6432;
      }

      .cls-4 {
        fill: #fff;
      }
    </style>
    <clipPath id="clippath">
      <rect class="cls-2" x="67.87" y="37.24" width="127" height="80.8"/>
    </clipPath>
    <clipPath id="clippath-1">
      <rect class="cls-2" x="67.87" y="112.71" width="127" height="22.67"/>
    </clipPath>
    <clipPath id="clippath-2">
      <rect class="cls-2" x="96.43" y="147.38" width="69.33" height="12.86"/>
    </clipPath>
  </defs>
  <rect class="cls-3" x=".43" y="-.29" width="420" height="196"/>
  <g class="cls-1">
    <path class="cls-4" d="M192.94,117.78h-122.92c-1.17,0-2.12-.95-2.12-2.12V45.72c0-4.68,3.8-8.48,8.48-8.48h110.2c4.68,0,8.48,3.8,8.48,8.48v69.94c0,1.17-.95,2.12-2.12,2.12ZM72.14,113.54h118.68V45.72c0-2.34-1.91-4.24-4.24-4.24h-110.2c-2.34,0-4.24,1.9-4.24,4.24v67.82Z"/>
  </g>
  <g class="cls-5">
    <path class="cls-4" d="M186.57,134.73h-110.2c-4.68,0-8.48-3.8-8.48-8.48v-10.59c0-1.17.95-2.12,2.12-2.12h122.92c1.17,0,2.12.95,2.12,2.12v10.59c0,4.68-3.81,8.48-8.48,8.48ZM72.14,117.78v8.47c0,2.34,1.9,4.24,4.24,4.24h110.2c2.34,0,4.24-1.9,4.24-4.24v-8.47h-118.68Z"/>
  </g>
  <path class="cls-4" d="M137.83,126.25h-12.72c-1.17,0-2.12-.95-2.12-2.11s.95-2.12,2.12-2.12h12.72c1.17,0,2.12.95,2.12,2.12s-.95,2.11-2.12,2.11Z"/>
  <path class="cls-4" d="M184.46,117.78h-105.97c-1.17,0-2.12-.95-2.12-2.12V47.84c0-1.17.95-2.12,2.12-2.12h105.97c1.17,0,2.12.95,2.12,2.12v67.82c0,1.17-.95,2.12-2.12,2.12ZM80.61,113.54h101.73v-63.58h-101.73v63.58Z"/>
  <g class="cls-6">
    <path class="cls-4" d="M159.03,160.16h-55.1c-3.51,0-6.36-2.85-6.36-6.36s2.85-6.35,6.36-6.35h55.1c3.51,0,6.36,2.85,6.36,6.35s-2.85,6.36-6.36,6.36ZM103.92,151.68c-1.17,0-2.12.95-2.12,2.12s.95,2.12,2.12,2.12h55.1c1.17,0,2.12-.95,2.12-2.12s-.95-2.12-2.12-2.12h-55.1Z"/>
  </g>
  <path class="cls-4" d="M154.79,151.68h-46.63c-1.17,0-2.12-.95-2.12-2.12s.95-2.11,2.12-2.11c7.03,0,10.6-4.99,10.6-14.84,0-1.17.95-2.12,2.12-2.12h21.19c1.17,0,2.12.95,2.12,2.12,0,9.84,3.56,14.84,10.59,14.84,1.17,0,2.12.95,2.12,2.11s-.95,2.12-2.12,2.12ZM118.49,147.45h25.98c-2.61-2.89-4.15-7.2-4.45-12.72h-17.07c-.31,5.52-1.84,9.83-4.45,12.72Z"/>
  <path class="cls-4" d="M131.48,117.78h-52.98c-1.17,0-2.12-.95-2.12-2.12V47.84c0-1.17.95-2.12,2.12-2.12h52.98c1.17,0,2.12.95,2.12,2.12v67.82c0,1.17-.95,2.12-2.12,2.12ZM80.61,113.54h48.74v-63.58h-48.74v63.58Z"/>
  <path class="cls-4" d="M101.8,109.3c-.32,0-.64-.07-.95-.22-1.05-.52-1.47-1.8-.95-2.84l6.36-12.71c.52-1.05,1.8-1.47,2.84-.95,1.05.52,1.47,1.8.95,2.84l-6.36,12.71c-.37.74-1.12,1.17-1.9,1.17Z"/>
  <path class="cls-4" d="M86.97,102.94c-.54,0-1.08-.21-1.5-.62-.83-.83-.83-2.17,0-2.99l6.36-6.36c.83-.83,2.17-.83,2.99,0,.83.83.83,2.17,0,2.99l-6.35,6.36c-.42.41-.96.62-1.5.62Z"/>
  <path class="cls-4" d="M93.33,109.3c-.55,0-1.09-.21-1.5-.62l-6.36-6.36c-.83-.83-.83-2.17,0-2.99s2.17-.83,3,0l6.35,6.36c.83.83.83,2.17,0,2.99-.41.41-.95.62-1.49.62Z"/>
  <path class="cls-4" d="M123,102.94c-.54,0-1.08-.21-1.49-.62l-6.36-6.36c-.83-.83-.83-2.17,0-2.99s2.17-.83,2.99,0l6.36,6.36c.83.83.83,2.17,0,2.99-.41.41-.95.62-1.5.62Z"/>
  <path class="cls-4" d="M116.64,109.3c-.54,0-1.09-.21-1.5-.62-.83-.83-.83-2.17,0-2.99l6.36-6.36c.82-.83,2.17-.83,2.99,0s.83,2.17,0,2.99l-6.36,6.36c-.41.41-.95.62-1.49.62Z"/>
  <path class="cls-4" d="M106.04,73.27c-1.17,0-2.12-.95-2.12-2.12v-14.84c0-1.17.95-2.12,2.12-2.12s2.12.95,2.12,2.12v14.84c0,1.17-.95,2.12-2.12,2.12Z"/>
  <path class="cls-4" d="M106.04,85.98c-1.17,0-2.12-.95-2.12-2.12v-4.24c0-1.17.95-2.12,2.12-2.12s2.12.95,2.12,2.12v4.24c0,1.17-.95,2.12-2.12,2.12Z"/>
  <path class="cls-4" d="M161.15,58.43h-21.19c-1.17,0-2.12-.95-2.12-2.12s.95-2.12,2.12-2.12h21.19c1.17,0,2.12.95,2.12,2.12s-.95,2.12-2.12,2.12Z"/>
  <path class="cls-4" d="M175.98,58.43h-6.35c-1.17,0-2.12-.95-2.12-2.12s.95-2.12,2.12-2.12h6.35c1.17,0,2.12.95,2.12,2.12s-.95,2.12-2.12,2.12Z"/>
  <path class="cls-4" d="M175.98,66.91h-21.19c-1.17,0-2.12-.95-2.12-2.12s.95-2.12,2.12-2.12h21.19c1.17,0,2.12.95,2.12,2.12s-.95,2.12-2.12,2.12Z"/>
  <path class="cls-4" d="M146.31,66.91h-6.35c-1.17,0-2.12-.95-2.12-2.12s.95-2.12,2.12-2.12h6.35c1.17,0,2.12.95,2.12,2.12s-.95,2.12-2.12,2.12Z"/>
  <path class="cls-4" d="M161.15,75.39h-21.19c-1.17,0-2.12-.95-2.12-2.11s.95-2.12,2.12-2.12h21.19c1.17,0,2.12.95,2.12,2.12s-.95,2.11-2.12,2.11Z"/>
  <path class="cls-4" d="M175.98,75.39h-6.35c-1.17,0-2.12-.95-2.12-2.11s.95-2.12,2.12-2.12h6.35c1.17,0,2.12.95,2.12,2.12s-.95,2.11-2.12,2.11Z"/>
  <path class="cls-4" d="M175.98,83.86h-21.19c-1.17,0-2.12-.95-2.12-2.12s.95-2.12,2.12-2.12h21.19c1.17,0,2.12.95,2.12,2.12s-.95,2.12-2.12,2.12Z"/>
  <path class="cls-4" d="M146.31,83.86h-6.35c-1.17,0-2.12-.95-2.12-2.12s.95-2.12,2.12-2.12h6.35c1.17,0,2.12.95,2.12,2.12s-.95,2.12-2.12,2.12Z"/>
  <path class="cls-4" d="M175.98,109.3h-21.19c-1.17,0-2.12-.95-2.12-2.12s.95-2.12,2.12-2.12h21.19c1.17,0,2.12.95,2.12,2.12s-.95,2.12-2.12,2.12Z"/>
  <path class="cls-4" d="M146.31,109.3h-6.35c-1.17,0-2.12-.95-2.12-2.12s.95-2.12,2.12-2.12h6.35c1.17,0,2.12.95,2.12,2.12s-.95,2.12-2.12,2.12Z"/>
  <path class="cls-4" d="M161.15,92.34h-21.19c-1.17,0-2.12-.95-2.12-2.12s.95-2.12,2.12-2.12h21.19c1.17,0,2.12.95,2.12,2.12s-.95,2.12-2.12,2.12Z"/>
  <path class="cls-4" d="M175.98,92.34h-6.35c-1.17,0-2.12-.95-2.12-2.12s.95-2.12,2.12-2.12h6.35c1.17,0,2.12.95,2.12,2.12s-.95,2.12-2.12,2.12Z"/>
  <path class="cls-4" d="M175.98,100.82h-21.19c-1.17,0-2.12-.95-2.12-2.11s.95-2.12,2.12-2.12h21.19c1.17,0,2.12.95,2.12,2.12s-.95,2.11-2.12,2.11Z"/>
  <path class="cls-4" d="M146.31,100.82h-6.35c-1.17,0-2.12-.95-2.12-2.11s.95-2.12,2.12-2.12h6.35c1.17,0,2.12.95,2.12,2.12s-.95,2.11-2.12,2.11Z"/>
  <path class="cls-4" d="M237.65,60.46c.47,0,.85.16,1.15.46.3.31.46.7.46,1.17v22.67c0,.53-.17.97-.5,1.31-.33.35-.77.52-1.29.52-.28,0-.55-.04-.81-.13-.25-.09-.45-.23-.6-.4l-14.67-19.13v18c0,.47-.16.87-.48,1.19-.31.31-.7.46-1.17.46s-.86-.15-1.17-.46c-.29-.32-.44-.71-.44-1.19v-22.69c0-.53.17-.96.5-1.29s.75-.5,1.25-.5c.29,0,.57.06.85.17.28.11.49.27.65.46l14.63,19.15v-18.15c0-.47.15-.86.46-1.17.32-.3.71-.46,1.19-.46Z"/>
  <path class="cls-4" d="M260.87,66.76c.51,0,.94.18,1.27.52.34.33.52.77.52,1.31v16.21c0,.5-.18.93-.52,1.27-.33.35-.76.52-1.27.52s-.95-.17-1.27-.5c-.32-.33-.48-.76-.48-1.29v-.98c-.66.88-1.54,1.62-2.67,2.23-1.11.61-2.31.92-3.6.92-1.7,0-3.24-.44-4.63-1.31-1.38-.88-2.46-2.09-3.25-3.65-.78-1.55-1.17-3.3-1.17-5.23s.39-3.69,1.17-5.25c.79-1.55,1.86-2.77,3.23-3.65,1.38-.88,2.88-1.31,4.52-1.31,1.32,0,2.54.28,3.67.83,1.14.54,2.05,1.24,2.73,2.08v-.9c0-.51.16-.94.48-1.29.32-.36.74-.54,1.27-.54ZM253.24,83.67c1.17,0,2.2-.3,3.1-.9.92-.59,1.63-1.42,2.15-2.46.51-1.04.77-2.22.77-3.54s-.26-2.46-.77-3.5c-.52-1.05-1.23-1.89-2.15-2.5-.91-.61-1.94-.92-3.1-.92s-2.21.3-3.13.9c-.91.6-1.61,1.43-2.13,2.48-.5,1.04-.75,2.22-.75,3.54s.25,2.5.75,3.54c.51,1.04,1.22,1.86,2.13,2.46.92.6,1.96.9,3.13.9Z"/>
  <path class="cls-4" d="M276.28,62.17c-.82,0-1.43.25-1.81.75-.39.5-.58,1.11-.58,1.83v2.6h3.69c.5,0,.9.16,1.21.48.32.31.48.7.48,1.17s-.16.86-.48,1.17c-.31.29-.71.44-1.21.44h-3.69v14.19c0,.5-.17.93-.5,1.27-.33.35-.77.52-1.29.52s-.92-.17-1.25-.52c-.33-.34-.5-.77-.5-1.27v-14.19h-2.31c-.47,0-.88-.15-1.21-.44-.32-.3-.48-.69-.48-1.17s.16-.86.48-1.17c.33-.32.73-.48,1.21-.48h2.31v-2.6c0-1.75.55-3.14,1.67-4.17,1.13-1.04,2.71-1.56,4.75-1.56.84,0,1.59.16,2.23.48.65.31.98.77.98,1.4,0,.47-.15.87-.44,1.19-.28.31-.62.46-1.02.46-.1,0-.37-.05-.81-.15-.56-.15-1.03-.23-1.42-.23Z"/>
  <path class="cls-4" d="M298.34,66.76c.51,0,.94.18,1.27.52.34.33.52.77.52,1.31v16.21c0,.5-.18.93-.52,1.27-.33.35-.76.52-1.27.52s-.95-.17-1.27-.5c-.32-.33-.48-.76-.48-1.29v-.98c-.66.88-1.54,1.62-2.67,2.23-1.11.61-2.31.92-3.6.92-1.7,0-3.24-.44-4.63-1.31-1.38-.88-2.46-2.09-3.25-3.65-.78-1.55-1.17-3.3-1.17-5.23s.39-3.69,1.17-5.25c.79-1.55,1.86-2.77,3.23-3.65,1.38-.88,2.88-1.31,4.52-1.31,1.32,0,2.54.28,3.67.83,1.14.54,2.05,1.24,2.73,2.08v-.9c0-.51.16-.94.48-1.29.32-.36.74-.54,1.27-.54ZM290.72,83.67c1.17,0,2.2-.3,3.1-.9.92-.59,1.63-1.42,2.15-2.46.51-1.04.77-2.22.77-3.54s-.26-2.46-.77-3.5c-.52-1.05-1.23-1.89-2.15-2.5-.91-.61-1.94-.92-3.1-.92s-2.21.3-3.13.9c-.91.6-1.61,1.43-2.13,2.48-.5,1.04-.75,2.22-.75,3.54s.25,2.5.75,3.54c.51,1.04,1.22,1.86,2.13,2.46.92.6,1.96.9,3.13.9Z"/>
  <path class="cls-4" d="M315.14,66.57c.65,0,1.21.18,1.69.52.47.33.71.75.71,1.25,0,.6-.16,1.06-.48,1.38s-.68.46-1.13.46c-.24,0-.58-.07-1.02-.23-.52-.18-.93-.27-1.23-.27-.77,0-1.52.27-2.25.81-.74.53-1.34,1.27-1.81,2.21-.46.93-.69,1.97-.69,3.1v9c0,.5-.17.93-.5,1.27-.33.35-.77.52-1.29.52s-.94-.17-1.27-.5c-.32-.33-.48-.76-.48-1.29v-15.98c0-.5.17-.92.5-1.27.34-.34.76-.52,1.25-.52.53,0,.96.18,1.29.52.33.35.5.77.5,1.27v1.9c.55-1.21,1.38-2.19,2.48-2.96,1.09-.76,2.34-1.16,3.73-1.19Z"/>
  <path class="cls-4" d="M330.55,66.57c.65,0,1.21.18,1.69.52.47.33.71.75.71,1.25,0,.6-.16,1.06-.48,1.38s-.68.46-1.13.46c-.24,0-.58-.07-1.02-.23-.52-.18-.93-.27-1.23-.27-.77,0-1.52.27-2.25.81-.74.53-1.34,1.27-1.81,2.21-.46.93-.69,1.97-.69,3.1v9c0,.5-.17.93-.5,1.27-.33.35-.77.52-1.29.52s-.94-.17-1.27-.5c-.32-.33-.48-.76-.48-1.29v-15.98c0-.5.17-.92.5-1.27.34-.34.76-.52,1.25-.52.53,0,.96.18,1.29.52.33.35.5.77.5,1.27v1.9c.55-1.21,1.38-2.19,2.48-2.96,1.09-.76,2.34-1.16,3.73-1.19Z"/>
  <path class="cls-4" d="M354.74,76.8c0,1.95-.44,3.69-1.31,5.23-.86,1.54-2.05,2.75-3.56,3.63-1.5.88-3.16,1.31-4.98,1.31s-3.49-.44-5-1.31c-1.5-.88-2.69-2.08-3.56-3.63-.86-1.54-1.29-3.28-1.29-5.23s.43-3.68,1.29-5.25c.88-1.57,2.06-2.79,3.56-3.67,1.51-.88,3.18-1.31,5-1.31s3.48.44,4.98,1.31c1.51.88,2.7,2.1,3.56,3.67.88,1.57,1.31,3.32,1.31,5.25ZM351.2,76.8c0-1.33-.29-2.53-.85-3.58-.56-1.07-1.31-1.9-2.27-2.48s-2.02-.88-3.19-.88-2.23.29-3.19.88-1.72,1.41-2.29,2.48c-.56,1.06-.83,2.25-.83,3.58s.28,2.51.83,3.56c.57,1.04,1.33,1.85,2.29,2.44s2.02.88,3.19.88,2.23-.29,3.19-.88,1.71-1.4,2.27-2.44c.57-1.05.85-2.24.85-3.56Z"/>
  <path class="cls-4" d="M374.72,66.76c.51,0,.94.18,1.27.52.34.33.52.77.52,1.31v16.21c0,.5-.18.93-.52,1.27-.33.35-.76.52-1.27.52s-.95-.17-1.27-.5c-.32-.33-.48-.76-.48-1.29v-.98c-.66.88-1.54,1.62-2.67,2.23-1.11.61-2.31.92-3.6.92-1.7,0-3.24-.44-4.63-1.31-1.38-.88-2.46-2.09-3.25-3.65-.78-1.55-1.17-3.3-1.17-5.23s.39-3.69,1.17-5.25c.79-1.55,1.86-2.77,3.23-3.65,1.38-.88,2.88-1.31,4.52-1.31,1.32,0,2.54.28,3.67.83,1.14.54,2.05,1.24,2.73,2.08v-.9c0-.51.16-.94.48-1.29.32-.36.74-.54,1.27-.54ZM367.09,83.67c1.17,0,2.2-.3,3.1-.9.92-.59,1.63-1.42,2.15-2.46.51-1.04.77-2.22.77-3.54s-.26-2.46-.77-3.5c-.52-1.05-1.23-1.89-2.15-2.5-.91-.61-1.94-.92-3.1-.92s-2.21.3-3.13.9c-.91.6-1.61,1.43-2.13,2.48-.5,1.04-.75,2.22-.75,3.54s.25,2.5.75,3.54c.51,1.04,1.22,1.86,2.13,2.46.92.6,1.96.9,3.13.9Z"/>
  <path class="cls-4" d="M241.78,96.98c.59.32.9.82.9,1.5,0,.45-.16.85-.46,1.23-.29.41-.7.6-1.23.6-.35,0-.68-.09-1-.27-1.54-.88-3.21-1.31-5-1.31s-3.53.42-4.96,1.25c-1.43.82-2.54,1.97-3.33,3.46-.79,1.47-1.19,3.17-1.19,5.08,0,2.07.41,3.85,1.23,5.35.82,1.49,1.95,2.62,3.4,3.4,1.44.78,3.06,1.17,4.85,1.17s3.5-.44,5-1.33c.29-.15.61-.23.98-.23.54,0,.97.22,1.29.65.3.38.46.77.46,1.19,0,.31-.08.59-.25.85-.17.25-.39.45-.65.6-.97.54-2.06.98-3.27,1.31-1.21.32-2.4.48-3.56.48-2.42,0-4.64-.53-6.67-1.6-2.03-1.07-3.65-2.63-4.85-4.67s-1.81-4.43-1.81-7.17c0-2.51.57-4.78,1.73-6.81,1.17-2.03,2.76-3.61,4.79-4.77,2.03-1.17,4.3-1.75,6.81-1.75s4.68.6,6.79,1.79Z"/>
  <path class="cls-4" d="M261.08,102.03c.53,0,.96.18,1.29.52.33.35.5.77.5,1.27v9.94c0,2.58-.72,4.59-2.15,6.02-1.43,1.43-3.45,2.15-6.06,2.15s-4.59-.71-6.02-2.15c-1.42-1.43-2.13-3.44-2.13-6.02v-9.94c0-.5.17-.92.5-1.27.34-.34.76-.52,1.25-.52.53,0,.96.18,1.29.52.33.35.5.77.5,1.27v9.94c0,3.25,1.53,4.88,4.6,4.88,1.51,0,2.67-.41,3.46-1.23.8-.82,1.21-2.03,1.21-3.65v-9.94c0-.5.17-.92.5-1.27.33-.34.75-.52,1.25-.52Z"/>
  <path class="cls-4" d="M277.91,101.57c.65,0,1.21.18,1.69.52.47.33.71.75.71,1.25,0,.6-.16,1.06-.48,1.38s-.68.46-1.13.46c-.24,0-.58-.07-1.02-.23-.52-.18-.93-.27-1.23-.27-.77,0-1.52.27-2.25.81-.74.53-1.34,1.27-1.81,2.21-.46.93-.69,1.97-.69,3.1v9c0,.5-.17.93-.5,1.27-.33.35-.77.52-1.29.52s-.94-.17-1.27-.5c-.32-.33-.48-.76-.48-1.29v-15.98c0-.5.17-.92.5-1.27.34-.34.76-.52,1.25-.52.53,0,.96.18,1.29.52.33.35.5.77.5,1.27v1.9c.55-1.21,1.38-2.19,2.48-2.96,1.09-.76,2.34-1.16,3.73-1.19Z"/>
  <path class="cls-4" d="M286.95,119.8c0,.5-.18.93-.52,1.27-.33.35-.77.52-1.29.52-.49,0-.91-.17-1.25-.52-.33-.34-.5-.77-.5-1.27v-16.17c0-.5.17-.92.5-1.27.34-.34.76-.52,1.25-.52.53,0,.96.18,1.29.52.34.35.52.77.52,1.27v16.17ZM285.16,99.38c-.72,0-1.24-.13-1.56-.4-.31-.26-.46-.68-.46-1.25v-.6c0-.59.17-1.02.5-1.27s.84-.38,1.54-.38,1.21.14,1.52.4c.3.27.46.68.46,1.25v.6c0,.6-.16,1.02-.48,1.27-.32.25-.83.38-1.52.38Z"/>
  <path class="cls-4" d="M310.57,111.8c0,1.95-.44,3.69-1.31,5.23-.86,1.54-2.05,2.75-3.56,3.63-1.5.88-3.16,1.31-4.98,1.31s-3.49-.44-5-1.31c-1.5-.88-2.69-2.08-3.56-3.63-.86-1.54-1.29-3.28-1.29-5.23s.43-3.68,1.29-5.25c.88-1.57,2.06-2.79,3.56-3.67,1.51-.88,3.18-1.31,5-1.31s3.48.44,4.98,1.31c1.51.88,2.7,2.1,3.56,3.67.88,1.57,1.31,3.32,1.31,5.25ZM307.03,111.8c0-1.33-.29-2.53-.85-3.58-.56-1.07-1.31-1.9-2.27-2.48s-2.02-.88-3.19-.88-2.23.29-3.19.88-1.72,1.41-2.29,2.48c-.56,1.06-.83,2.25-.83,3.58s.28,2.51.83,3.56c.57,1.04,1.33,1.85,2.29,2.44s2.02.88,3.19.88,2.23-.29,3.19-.88,1.71-1.4,2.27-2.44c.57-1.05.85-2.24.85-3.56Z"/>
  <path class="cls-4" d="M313.55,118.53c-.22-.34-.33-.68-.33-1,0-.5.26-.92.79-1.27.25-.18.53-.27.85-.27.44,0,.85.19,1.23.56.75.85,1.55,1.49,2.42,1.92.86.42,1.89.63,3.08.63.94-.03,1.78-.24,2.5-.65.72-.42,1.08-1.08,1.08-2,0-.84-.37-1.49-1.1-1.94-.74-.46-1.81-.88-3.23-1.25-1.39-.36-2.55-.75-3.48-1.17-.92-.42-1.7-1.01-2.33-1.79-.63-.79-.94-1.82-.94-3.08,0-1.13.31-2.1.94-2.94.64-.84,1.48-1.51,2.54-1.98,1.05-.48,2.21-.73,3.46-.73s2.38.23,3.56.69c1.18.45,2.15,1.13,2.9,2.04.29.35.44.71.44,1.08,0,.41-.2.79-.58,1.17-.25.22-.56.33-.94.33-.45,0-.81-.15-1.08-.46-.53-.59-1.18-1.05-1.94-1.38-.75-.32-1.58-.48-2.5-.48s-1.75.2-2.42.58c-.66.38-.98,1.03-.98,1.96.01.86.39,1.51,1.13,1.94.73.42,1.86.83,3.38,1.23,1.32.35,2.42.72,3.29,1.13.88.39,1.61.98,2.21,1.77.59.78.9,1.81.9,3.08,0,1.17-.34,2.18-1.02,3.04-.67.86-1.54,1.52-2.63,1.98s-2.24.69-3.46.69c-1.56,0-3-.27-4.33-.81-1.33-.55-2.47-1.43-3.4-2.63Z"/>
  <path class="cls-4" d="M335.85,119.8c0,.5-.18.93-.52,1.27-.33.35-.77.52-1.29.52-.49,0-.91-.17-1.25-.52-.33-.34-.5-.77-.5-1.27v-16.17c0-.5.17-.92.5-1.27.34-.34.76-.52,1.25-.52.53,0,.96.18,1.29.52.34.35.52.77.52,1.27v16.17ZM334.06,99.38c-.72,0-1.24-.13-1.56-.4-.31-.26-.46-.68-.46-1.25v-.6c0-.59.17-1.02.5-1.27s.84-.38,1.54-.38,1.21.14,1.52.4c.3.27.46.68.46,1.25v.6c0,.6-.16,1.02-.48,1.27-.32.25-.83.38-1.52.38Z"/>
  <path class="cls-4" d="M346.27,105.51v11.13c0,1.24.55,1.85,1.67,1.85.18,0,.42-.04.71-.13.3-.08.54-.13.71-.13.33,0,.61.14.83.42.22.27.33.61.33,1.04,0,.52-.3.96-.9,1.33-.6.38-1.27.56-2.02.56-.82,0-1.57-.08-2.25-.25-.68-.18-1.29-.63-1.83-1.33s-.81-1.78-.81-3.23v-11.27h-2.15c-.49,0-.89-.15-1.19-.46-.31-.32-.46-.71-.46-1.19s.15-.85.46-1.15c.3-.3.7-.46,1.19-.46h2.15v-3.15c0-.5.17-.92.5-1.27.34-.34.78-.52,1.29-.52s.92.18,1.25.52c.34.35.52.77.52,1.27v3.15h3.08c.47,0,.86.16,1.17.48.32.31.48.7.48,1.17s-.16.86-.48,1.17c-.31.29-.7.44-1.17.44h-3.08Z"/>
  <path class="cls-4" d="M369.7,101.84c.53,0,.96.18,1.29.52.33.35.5.77.5,1.27v16.13c0,3.11-.86,5.44-2.58,6.98-1.71,1.54-3.97,2.31-6.79,2.31-.92,0-1.83-.09-2.73-.27-.89-.17-1.62-.4-2.19-.69-.93-.43-1.4-1.01-1.4-1.73,0-.13.03-.29.08-.48.15-.42.36-.74.63-.98.28-.22.59-.33.94-.33.21,0,.4.04.56.13.78.34,1.46.61,2.06.81.59.19,1.29.29,2.08.29,3.86,0,5.79-1.97,5.79-5.92v-.75c-.67.89-1.54,1.58-2.6,2.08-1.06.5-2.27.75-3.63.75-2.07,0-3.69-.66-4.85-1.98-1.16-1.32-1.73-3.05-1.73-5.19v-11.17c0-.53.16-.96.48-1.29.33-.33.76-.5,1.27-.5s.96.18,1.29.52c.33.35.5.77.5,1.27v10.23c0,1.64.36,2.85,1.08,3.65.72.78,1.82,1.17,3.29,1.17s2.58-.44,3.5-1.33c.93-.9,1.4-2.06,1.4-3.48v-10.23c0-.53.16-.96.48-1.29.32-.33.74-.5,1.27-.5Z"/>
</svg>