<svg xmlns="http://www.w3.org/2000/svg" xmlns:xlink="http://www.w3.org/1999/xlink" width="500" zoomAndPan="magnify" viewBox="0 0 375 374.999991" height="500" preserveAspectRatio="xMidYMid meet" version="1.0"><defs><g/><clipPath id="6f76653db1"><path d="M 37.5 204.75 L 76.785156 204.75 L 76.785156 244.039062 L 37.5 244.039062 Z M 37.5 204.75 " clip-rule="nonzero"/></clipPath><clipPath id="6104ad1bba"><path d="M 72.949219 204.75 L 41.339844 204.75 C 41.339844 206.863281 39.628906 208.589844 37.5 208.589844 L 37.5 240.199219 C 39.613281 240.199219 41.339844 241.90625 41.339844 244.039062 L 72.949219 244.039062 C 72.949219 241.925781 74.65625 240.199219 76.785156 240.199219 L 76.785156 208.589844 C 74.675781 208.589844 72.949219 206.882812 72.949219 204.75 Z M 72.949219 204.75 " clip-rule="nonzero"/></clipPath><clipPath id="8479c3a569"><path d="M 42.230469 209.132812 L 46.421875 209.132812 L 46.421875 213.324219 L 42.230469 213.324219 Z M 42.230469 209.132812 " clip-rule="nonzero"/></clipPath><clipPath id="7620844aae"><path d="M 44.328125 209.132812 C 43.167969 209.132812 42.230469 210.070312 42.230469 211.226562 C 42.230469 212.386719 43.167969 213.324219 44.328125 213.324219 C 45.484375 213.324219 46.421875 212.386719 46.421875 211.226562 C 46.421875 210.070312 45.484375 209.132812 44.328125 209.132812 Z M 44.328125 209.132812 " clip-rule="nonzero"/></clipPath><clipPath id="7566d817c1"><path d="M 68.304688 209.132812 L 72.496094 209.132812 L 72.496094 213.324219 L 68.304688 213.324219 Z M 68.304688 209.132812 " clip-rule="nonzero"/></clipPath><clipPath id="3e4d65d0e7"><path d="M 70.402344 209.132812 C 69.242188 209.132812 68.304688 210.070312 68.304688 211.226562 C 68.304688 212.386719 69.242188 213.324219 70.402344 213.324219 C 71.558594 213.324219 72.496094 212.386719 72.496094 211.226562 C 72.496094 210.070312 71.558594 209.132812 70.402344 209.132812 Z M 70.402344 209.132812 " clip-rule="nonzero"/></clipPath><clipPath id="ea73e65c23"><path d="M 42.230469 235.324219 L 46.421875 235.324219 L 46.421875 239.515625 L 42.230469 239.515625 Z M 42.230469 235.324219 " clip-rule="nonzero"/></clipPath><clipPath id="0ffe245e7a"><path d="M 44.328125 235.324219 C 43.167969 235.324219 42.230469 236.261719 42.230469 237.417969 C 42.230469 238.574219 43.167969 239.515625 44.328125 239.515625 C 45.484375 239.515625 46.421875 238.574219 46.421875 237.417969 C 46.421875 236.261719 45.484375 235.324219 44.328125 235.324219 Z M 44.328125 235.324219 " clip-rule="nonzero"/></clipPath><clipPath id="f93283b7ae"><path d="M 68.304688 235.324219 L 72.496094 235.324219 L 72.496094 239.515625 L 68.304688 239.515625 Z M 68.304688 235.324219 " clip-rule="nonzero"/></clipPath><clipPath id="f7215c52df"><path d="M 70.402344 235.324219 C 69.242188 235.324219 68.304688 236.261719 68.304688 237.417969 C 68.304688 238.574219 69.242188 239.515625 70.402344 239.515625 C 71.558594 239.515625 72.496094 238.574219 72.496094 237.417969 C 72.496094 236.261719 71.558594 235.324219 70.402344 235.324219 Z M 70.402344 235.324219 " clip-rule="nonzero"/></clipPath><clipPath id="c9c59e794c"><path d="M 81.285156 204.796875 L 120.574219 204.796875 L 120.574219 244.082031 L 81.285156 244.082031 Z M 81.285156 204.796875 " clip-rule="nonzero"/></clipPath><clipPath id="e5cc8424d6"><path d="M 116.734375 204.796875 L 85.125 204.796875 C 85.125 206.90625 83.417969 208.632812 81.285156 208.632812 L 81.285156 240.242188 C 83.398438 240.242188 85.125 241.953125 85.125 244.082031 L 116.734375 244.082031 C 116.734375 241.96875 118.441406 240.242188 120.574219 240.242188 L 120.574219 208.632812 C 118.460938 208.632812 116.734375 206.925781 116.734375 204.796875 Z M 116.734375 204.796875 " clip-rule="nonzero"/></clipPath><clipPath id="ac407ea435"><path d="M 85.796875 209.132812 L 89.988281 209.132812 L 89.988281 213.324219 L 85.796875 213.324219 Z M 85.796875 209.132812 " clip-rule="nonzero"/></clipPath><clipPath id="55a0e7e609"><path d="M 87.894531 209.132812 C 86.734375 209.132812 85.796875 210.070312 85.796875 211.226562 C 85.796875 212.386719 86.734375 213.324219 87.894531 213.324219 C 89.050781 213.324219 89.988281 212.386719 89.988281 211.226562 C 89.988281 210.070312 89.050781 209.132812 87.894531 209.132812 Z M 87.894531 209.132812 " clip-rule="nonzero"/></clipPath><clipPath id="d890f28b17"><path d="M 111.871094 209.132812 L 116.0625 209.132812 L 116.0625 213.324219 L 111.871094 213.324219 Z M 111.871094 209.132812 " clip-rule="nonzero"/></clipPath><clipPath id="e73aeaf0b1"><path d="M 113.96875 209.132812 C 112.808594 209.132812 111.871094 210.070312 111.871094 211.226562 C 111.871094 212.386719 112.808594 213.324219 113.96875 213.324219 C 115.125 213.324219 116.0625 212.386719 116.0625 211.226562 C 116.0625 210.070312 115.125 209.132812 113.96875 209.132812 Z M 113.96875 209.132812 " clip-rule="nonzero"/></clipPath><clipPath id="18b9d025a7"><path d="M 85.796875 235.324219 L 89.988281 235.324219 L 89.988281 239.515625 L 85.796875 239.515625 Z M 85.796875 235.324219 " clip-rule="nonzero"/></clipPath><clipPath id="4e52f908e0"><path d="M 87.894531 235.324219 C 86.734375 235.324219 85.796875 236.261719 85.796875 237.417969 C 85.796875 238.574219 86.734375 239.515625 87.894531 239.515625 C 89.050781 239.515625 89.988281 238.574219 89.988281 237.417969 C 89.988281 236.261719 89.050781 235.324219 87.894531 235.324219 Z M 87.894531 235.324219 " clip-rule="nonzero"/></clipPath><clipPath id="7cd50566c3"><path d="M 111.871094 235.324219 L 116.0625 235.324219 L 116.0625 239.515625 L 111.871094 239.515625 Z M 111.871094 235.324219 " clip-rule="nonzero"/></clipPath><clipPath id="bd4d92458a"><path d="M 113.96875 235.324219 C 112.808594 235.324219 111.871094 236.261719 111.871094 237.417969 C 111.871094 238.574219 112.808594 239.515625 113.96875 239.515625 C 115.125 239.515625 116.0625 238.574219 116.0625 237.417969 C 116.0625 236.261719 115.125 235.324219 113.96875 235.324219 Z M 113.96875 235.324219 " clip-rule="nonzero"/></clipPath><clipPath id="615c7471fa"><path d="M 125.160156 204.796875 L 164.445312 204.796875 L 164.445312 244.082031 L 125.160156 244.082031 Z M 125.160156 204.796875 " clip-rule="nonzero"/></clipPath><clipPath id="84690eb32d"><path d="M 160.605469 204.796875 L 128.996094 204.796875 C 128.996094 206.90625 127.289062 208.632812 125.160156 208.632812 L 125.160156 240.242188 C 127.269531 240.242188 128.996094 241.953125 128.996094 244.082031 L 160.605469 244.082031 C 160.605469 241.96875 162.316406 240.242188 164.445312 240.242188 L 164.445312 208.632812 C 162.332031 208.632812 160.605469 206.925781 160.605469 204.796875 Z M 160.605469 204.796875 " clip-rule="nonzero"/></clipPath><clipPath id="f6935e7833"><path d="M 129.667969 209.132812 L 133.859375 209.132812 L 133.859375 213.324219 L 129.667969 213.324219 Z M 129.667969 209.132812 " clip-rule="nonzero"/></clipPath><clipPath id="be4f6fa5a9"><path d="M 131.765625 209.132812 C 130.609375 209.132812 129.667969 210.070312 129.667969 211.226562 C 129.667969 212.386719 130.609375 213.324219 131.765625 213.324219 C 132.921875 213.324219 133.859375 212.386719 133.859375 211.226562 C 133.859375 210.070312 132.921875 209.132812 131.765625 209.132812 Z M 131.765625 209.132812 " clip-rule="nonzero"/></clipPath><clipPath id="305e6aa821"><path d="M 155.742188 209.132812 L 159.933594 209.132812 L 159.933594 213.324219 L 155.742188 213.324219 Z M 155.742188 209.132812 " clip-rule="nonzero"/></clipPath><clipPath id="b35805017d"><path d="M 157.839844 209.132812 C 156.683594 209.132812 155.742188 210.070312 155.742188 211.226562 C 155.742188 212.386719 156.683594 213.324219 157.839844 213.324219 C 158.996094 213.324219 159.933594 212.386719 159.933594 211.226562 C 159.933594 210.070312 158.996094 209.132812 157.839844 209.132812 Z M 157.839844 209.132812 " clip-rule="nonzero"/></clipPath><clipPath id="12465605f2"><path d="M 129.667969 235.324219 L 133.859375 235.324219 L 133.859375 239.515625 L 129.667969 239.515625 Z M 129.667969 235.324219 " clip-rule="nonzero"/></clipPath><clipPath id="422fd01252"><path d="M 131.765625 235.324219 C 130.609375 235.324219 129.667969 236.261719 129.667969 237.417969 C 129.667969 238.574219 130.609375 239.515625 131.765625 239.515625 C 132.921875 239.515625 133.859375 238.574219 133.859375 237.417969 C 133.859375 236.261719 132.921875 235.324219 131.765625 235.324219 Z M 131.765625 235.324219 " clip-rule="nonzero"/></clipPath><clipPath id="a0eca03000"><path d="M 155.742188 235.324219 L 159.933594 235.324219 L 159.933594 239.515625 L 155.742188 239.515625 Z M 155.742188 235.324219 " clip-rule="nonzero"/></clipPath><clipPath id="99ec3f9de8"><path d="M 157.839844 235.324219 C 156.683594 235.324219 155.742188 236.261719 155.742188 237.417969 C 155.742188 238.574219 156.683594 239.515625 157.839844 239.515625 C 158.996094 239.515625 159.933594 238.574219 159.933594 237.417969 C 159.933594 236.261719 158.996094 235.324219 157.839844 235.324219 Z M 157.839844 235.324219 " clip-rule="nonzero"/></clipPath><clipPath id="7ed2e06d3c"><path d="M 169.125 204.796875 L 208.414062 204.796875 L 208.414062 244.082031 L 169.125 244.082031 Z M 169.125 204.796875 " clip-rule="nonzero"/></clipPath><clipPath id="39d87fe4cd"><path d="M 204.574219 204.796875 L 172.964844 204.796875 C 172.964844 206.90625 171.257812 208.632812 169.125 208.632812 L 169.125 240.242188 C 171.238281 240.242188 172.964844 241.953125 172.964844 244.082031 L 204.574219 244.082031 C 204.574219 241.96875 206.28125 240.242188 208.414062 240.242188 L 208.414062 208.632812 C 206.300781 208.632812 204.574219 206.925781 204.574219 204.796875 Z M 204.574219 204.796875 " clip-rule="nonzero"/></clipPath><clipPath id="1e2fbeb1e2"><path d="M 173.636719 209.132812 L 177.828125 209.132812 L 177.828125 213.324219 L 173.636719 213.324219 Z M 173.636719 209.132812 " clip-rule="nonzero"/></clipPath><clipPath id="e608845687"><path d="M 175.730469 209.132812 C 174.574219 209.132812 173.636719 210.070312 173.636719 211.226562 C 173.636719 212.386719 174.574219 213.324219 175.730469 213.324219 C 176.890625 213.324219 177.828125 212.386719 177.828125 211.226562 C 177.828125 210.070312 176.890625 209.132812 175.730469 209.132812 Z M 175.730469 209.132812 " clip-rule="nonzero"/></clipPath><clipPath id="2a44eae482"><path d="M 199.710938 209.132812 L 203.902344 209.132812 L 203.902344 213.324219 L 199.710938 213.324219 Z M 199.710938 209.132812 " clip-rule="nonzero"/></clipPath><clipPath id="f2f35a7963"><path d="M 201.808594 209.132812 C 200.648438 209.132812 199.710938 210.070312 199.710938 211.226562 C 199.710938 212.386719 200.648438 213.324219 201.808594 213.324219 C 202.964844 213.324219 203.902344 212.386719 203.902344 211.226562 C 203.902344 210.070312 202.964844 209.132812 201.808594 209.132812 Z M 201.808594 209.132812 " clip-rule="nonzero"/></clipPath><clipPath id="4915263c63"><path d="M 173.636719 235.324219 L 177.828125 235.324219 L 177.828125 239.515625 L 173.636719 239.515625 Z M 173.636719 235.324219 " clip-rule="nonzero"/></clipPath><clipPath id="ef5d9feea1"><path d="M 175.730469 235.324219 C 174.574219 235.324219 173.636719 236.261719 173.636719 237.417969 C 173.636719 238.574219 174.574219 239.515625 175.730469 239.515625 C 176.890625 239.515625 177.828125 238.574219 177.828125 237.417969 C 177.828125 236.261719 176.890625 235.324219 175.730469 235.324219 Z M 175.730469 235.324219 " clip-rule="nonzero"/></clipPath><clipPath id="10942abad9"><path d="M 199.710938 235.324219 L 203.902344 235.324219 L 203.902344 239.515625 L 199.710938 239.515625 Z M 199.710938 235.324219 " clip-rule="nonzero"/></clipPath><clipPath id="d1bf797192"><path d="M 201.808594 235.324219 C 200.648438 235.324219 199.710938 236.261719 199.710938 237.417969 C 199.710938 238.574219 200.648438 239.515625 201.808594 239.515625 C 202.964844 239.515625 203.902344 238.574219 203.902344 237.417969 C 203.902344 236.261719 202.964844 235.324219 201.808594 235.324219 Z M 201.808594 235.324219 " clip-rule="nonzero"/></clipPath><clipPath id="31ef8268ae"><path d="M 213.09375 204.796875 L 252.378906 204.796875 L 252.378906 244.082031 L 213.09375 244.082031 Z M 213.09375 204.796875 " clip-rule="nonzero"/></clipPath><clipPath id="65033f07a7"><path d="M 248.542969 204.796875 L 216.933594 204.796875 C 216.933594 206.90625 215.222656 208.632812 213.09375 208.632812 L 213.09375 240.242188 C 215.207031 240.242188 216.933594 241.953125 216.933594 244.082031 L 248.542969 244.082031 C 248.542969 241.96875 250.25 240.242188 252.378906 240.242188 L 252.378906 208.632812 C 250.269531 208.632812 248.542969 206.925781 248.542969 204.796875 Z M 248.542969 204.796875 " clip-rule="nonzero"/></clipPath><clipPath id="009fbc3f71"><path d="M 217.605469 209.132812 L 221.796875 209.132812 L 221.796875 213.324219 L 217.605469 213.324219 Z M 217.605469 209.132812 " clip-rule="nonzero"/></clipPath><clipPath id="0400740cde"><path d="M 219.699219 209.132812 C 218.542969 209.132812 217.605469 210.070312 217.605469 211.226562 C 217.605469 212.386719 218.542969 213.324219 219.699219 213.324219 C 220.855469 213.324219 221.796875 212.386719 221.796875 211.226562 C 221.796875 210.070312 220.855469 209.132812 219.699219 209.132812 Z M 219.699219 209.132812 " clip-rule="nonzero"/></clipPath><clipPath id="9a34e8f22b"><path d="M 243.679688 209.132812 L 247.871094 209.132812 L 247.871094 213.324219 L 243.679688 213.324219 Z M 243.679688 209.132812 " clip-rule="nonzero"/></clipPath><clipPath id="4d6ac8faae"><path d="M 245.773438 209.132812 C 244.617188 209.132812 243.679688 210.070312 243.679688 211.226562 C 243.679688 212.386719 244.617188 213.324219 245.773438 213.324219 C 246.929688 213.324219 247.871094 212.386719 247.871094 211.226562 C 247.871094 210.070312 246.929688 209.132812 245.773438 209.132812 Z M 245.773438 209.132812 " clip-rule="nonzero"/></clipPath><clipPath id="6c652c20f8"><path d="M 217.605469 235.324219 L 221.796875 235.324219 L 221.796875 239.515625 L 217.605469 239.515625 Z M 217.605469 235.324219 " clip-rule="nonzero"/></clipPath><clipPath id="b66f832f2f"><path d="M 219.699219 235.324219 C 218.542969 235.324219 217.605469 236.261719 217.605469 237.417969 C 217.605469 238.574219 218.542969 239.515625 219.699219 239.515625 C 220.855469 239.515625 221.796875 238.574219 221.796875 237.417969 C 221.796875 236.261719 220.855469 235.324219 219.699219 235.324219 Z M 219.699219 235.324219 " clip-rule="nonzero"/></clipPath><clipPath id="66827762c1"><path d="M 243.679688 235.324219 L 247.871094 235.324219 L 247.871094 239.515625 L 243.679688 239.515625 Z M 243.679688 235.324219 " clip-rule="nonzero"/></clipPath><clipPath id="a8bffd7819"><path d="M 245.773438 235.324219 C 244.617188 235.324219 243.679688 236.261719 243.679688 237.417969 C 243.679688 238.574219 244.617188 239.515625 245.773438 239.515625 C 246.929688 239.515625 247.871094 238.574219 247.871094 237.417969 C 247.871094 236.261719 246.929688 235.324219 245.773438 235.324219 Z M 245.773438 235.324219 " clip-rule="nonzero"/></clipPath><clipPath id="46d39033af"><path d="M 256.878906 204.796875 L 296.167969 204.796875 L 296.167969 244.082031 L 256.878906 244.082031 Z M 256.878906 204.796875 " clip-rule="nonzero"/></clipPath><clipPath id="2b5f05b4ae"><path d="M 292.328125 204.796875 L 260.71875 204.796875 C 260.71875 206.90625 259.011719 208.632812 256.878906 208.632812 L 256.878906 240.242188 C 258.992188 240.242188 260.71875 241.953125 260.71875 244.082031 L 292.328125 244.082031 C 292.328125 241.96875 294.035156 240.242188 296.167969 240.242188 L 296.167969 208.632812 C 294.054688 208.632812 292.328125 206.925781 292.328125 204.796875 Z M 292.328125 204.796875 " clip-rule="nonzero"/></clipPath><clipPath id="5e97a726ea"><path d="M 261.390625 209.132812 L 265.582031 209.132812 L 265.582031 213.324219 L 261.390625 213.324219 Z M 261.390625 209.132812 " clip-rule="nonzero"/></clipPath><clipPath id="000b1dff1b"><path d="M 263.488281 209.132812 C 262.328125 209.132812 261.390625 210.070312 261.390625 211.226562 C 261.390625 212.386719 262.328125 213.324219 263.488281 213.324219 C 264.644531 213.324219 265.582031 212.386719 265.582031 211.226562 C 265.582031 210.070312 264.644531 209.132812 263.488281 209.132812 Z M 263.488281 209.132812 " clip-rule="nonzero"/></clipPath><clipPath id="4213ab1b5b"><path d="M 287.464844 209.132812 L 291.65625 209.132812 L 291.65625 213.324219 L 287.464844 213.324219 Z M 287.464844 209.132812 " clip-rule="nonzero"/></clipPath><clipPath id="a5b568c90c"><path d="M 289.5625 209.132812 C 288.402344 209.132812 287.464844 210.070312 287.464844 211.226562 C 287.464844 212.386719 288.402344 213.324219 289.5625 213.324219 C 290.71875 213.324219 291.65625 212.386719 291.65625 211.226562 C 291.65625 210.070312 290.71875 209.132812 289.5625 209.132812 Z M 289.5625 209.132812 " clip-rule="nonzero"/></clipPath><clipPath id="282139bb52"><path d="M 261.390625 235.324219 L 265.582031 235.324219 L 265.582031 239.515625 L 261.390625 239.515625 Z M 261.390625 235.324219 " clip-rule="nonzero"/></clipPath><clipPath id="dbd1d605ce"><path d="M 263.488281 235.324219 C 262.328125 235.324219 261.390625 236.261719 261.390625 237.417969 C 261.390625 238.574219 262.328125 239.515625 263.488281 239.515625 C 264.644531 239.515625 265.582031 238.574219 265.582031 237.417969 C 265.582031 236.261719 264.644531 235.324219 263.488281 235.324219 Z M 263.488281 235.324219 " clip-rule="nonzero"/></clipPath><clipPath id="808c714acb"><path d="M 287.464844 235.324219 L 291.65625 235.324219 L 291.65625 239.515625 L 287.464844 239.515625 Z M 287.464844 235.324219 " clip-rule="nonzero"/></clipPath><clipPath id="0b8240ebcd"><path d="M 289.5625 235.324219 C 288.402344 235.324219 287.464844 236.261719 287.464844 237.417969 C 287.464844 238.574219 288.402344 239.515625 289.5625 239.515625 C 290.71875 239.515625 291.65625 238.574219 291.65625 237.417969 C 291.65625 236.261719 290.71875 235.324219 289.5625 235.324219 Z M 289.5625 235.324219 " clip-rule="nonzero"/></clipPath><clipPath id="3f2d6a3eab"><path d="M 300.667969 204.75 L 339.953125 204.75 L 339.953125 244.039062 L 300.667969 244.039062 Z M 300.667969 204.75 " clip-rule="nonzero"/></clipPath><clipPath id="8752c2bd12"><path d="M 336.113281 204.75 L 304.503906 204.75 C 304.503906 206.863281 302.796875 208.589844 300.667969 208.589844 L 300.667969 240.199219 C 302.777344 240.199219 304.503906 241.90625 304.503906 244.039062 L 336.113281 244.039062 C 336.113281 241.925781 337.824219 240.199219 339.953125 240.199219 L 339.953125 208.589844 C 337.839844 208.589844 336.113281 206.882812 336.113281 204.75 Z M 336.113281 204.75 " clip-rule="nonzero"/></clipPath><clipPath id="7eb502c243"><path d="M 305.179688 209.089844 L 309.367188 209.089844 L 309.367188 213.277344 L 305.179688 213.277344 Z M 305.179688 209.089844 " clip-rule="nonzero"/></clipPath><clipPath id="88558155c2"><path d="M 307.273438 209.089844 C 306.117188 209.089844 305.179688 210.027344 305.179688 211.183594 C 305.179688 212.339844 306.117188 213.277344 307.273438 213.277344 C 308.429688 213.277344 309.367188 212.339844 309.367188 211.183594 C 309.367188 210.027344 308.429688 209.089844 307.273438 209.089844 Z M 307.273438 209.089844 " clip-rule="nonzero"/></clipPath><clipPath id="dd27ff494c"><path d="M 331.253906 209.089844 L 335.441406 209.089844 L 335.441406 213.277344 L 331.253906 213.277344 Z M 331.253906 209.089844 " clip-rule="nonzero"/></clipPath><clipPath id="563051fe44"><path d="M 333.347656 209.089844 C 332.191406 209.089844 331.253906 210.027344 331.253906 211.183594 C 331.253906 212.339844 332.191406 213.277344 333.347656 213.277344 C 334.503906 213.277344 335.441406 212.339844 335.441406 211.183594 C 335.441406 210.027344 334.503906 209.089844 333.347656 209.089844 Z M 333.347656 209.089844 " clip-rule="nonzero"/></clipPath><clipPath id="6a1cdce589"><path d="M 305.179688 235.28125 L 309.367188 235.28125 L 309.367188 239.46875 L 305.179688 239.46875 Z M 305.179688 235.28125 " clip-rule="nonzero"/></clipPath><clipPath id="43dc02b912"><path d="M 307.273438 235.28125 C 306.117188 235.28125 305.179688 236.21875 305.179688 237.375 C 305.179688 238.53125 306.117188 239.46875 307.273438 239.46875 C 308.429688 239.46875 309.367188 238.53125 309.367188 237.375 C 309.367188 236.21875 308.429688 235.28125 307.273438 235.28125 Z M 307.273438 235.28125 " clip-rule="nonzero"/></clipPath><clipPath id="3dd49d0b13"><path d="M 331.253906 235.28125 L 335.441406 235.28125 L 335.441406 239.46875 L 331.253906 239.46875 Z M 331.253906 235.28125 " clip-rule="nonzero"/></clipPath><clipPath id="df3d208063"><path d="M 333.347656 235.28125 C 332.191406 235.28125 331.253906 236.21875 331.253906 237.375 C 331.253906 238.53125 332.191406 239.46875 333.347656 239.46875 C 334.503906 239.46875 335.441406 238.53125 335.441406 237.375 C 335.441406 236.21875 334.503906 235.28125 333.347656 235.28125 Z M 333.347656 235.28125 " clip-rule="nonzero"/></clipPath><clipPath id="642dc464ff"><path d="M 102.046875 106.894531 L 272.945312 106.894531 L 272.945312 198.394531 L 102.046875 198.394531 Z M 102.046875 106.894531 " clip-rule="nonzero"/></clipPath><clipPath id="0c22f178c1"><path d="M 122 117 L 253 117 L 253 198.394531 L 122 198.394531 Z M 122 117 " clip-rule="nonzero"/></clipPath><clipPath id="8602c90b09"><path d="M 131 113 L 244 113 L 244 198.394531 L 131 198.394531 Z M 131 113 " clip-rule="nonzero"/></clipPath><clipPath id="8d4eba1bf9"><path d="M 155 152 L 219 152 L 219 198.394531 L 155 198.394531 Z M 155 152 " clip-rule="nonzero"/></clipPath><clipPath id="14df52ddd8"><path d="M 143 113 L 231 113 L 231 198.394531 L 143 198.394531 Z M 143 113 " clip-rule="nonzero"/></clipPath></defs><rect x="-37.5" width="450" fill="#ffffff" y="-37.499999" height="449.999989" fill-opacity="1"/><rect x="-37.5" width="450" fill="#ffffff" y="-37.499999" height="449.999989" fill-opacity="1"/><g clip-path="url(#6f76653db1)"><g clip-path="url(#6104ad1bba)"><path fill="#ea7e16" d="M 37.5 204.75 L 76.785156 204.75 L 76.785156 244.039062 L 37.5 244.039062 Z M 37.5 204.75 " fill-opacity="1" fill-rule="nonzero"/></g></g><g clip-path="url(#8479c3a569)"><g clip-path="url(#7620844aae)"><path fill="#ffffff" d="M 42.230469 209.132812 L 46.421875 209.132812 L 46.421875 213.324219 L 42.230469 213.324219 Z M 42.230469 209.132812 " fill-opacity="1" fill-rule="nonzero"/></g></g><g clip-path="url(#7566d817c1)"><g clip-path="url(#3e4d65d0e7)"><path fill="#ffffff" d="M 68.304688 209.132812 L 72.496094 209.132812 L 72.496094 213.324219 L 68.304688 213.324219 Z M 68.304688 209.132812 " fill-opacity="1" fill-rule="nonzero"/></g></g><g clip-path="url(#ea73e65c23)"><g clip-path="url(#0ffe245e7a)"><path fill="#ffffff" d="M 42.230469 235.324219 L 46.421875 235.324219 L 46.421875 239.515625 L 42.230469 239.515625 Z M 42.230469 235.324219 " fill-opacity="1" fill-rule="nonzero"/></g></g><g clip-path="url(#f93283b7ae)"><g clip-path="url(#f7215c52df)"><path fill="#ffffff" d="M 68.304688 235.324219 L 72.496094 235.324219 L 72.496094 239.515625 L 68.304688 239.515625 Z M 68.304688 235.324219 " fill-opacity="1" fill-rule="nonzero"/></g></g><g fill="#ffffff" fill-opacity="1"><g transform="translate(50.384095, 233.3627)"><g><path d="M 4.207031 -4.207031 L 6.847656 -4.207031 C 7.824219 -4.207031 8.65625 -4.523438 9.367188 -5.234375 L 11.492188 -7.261719 C 12.984375 -8.707031 13.253906 -12.324219 11.714844 -13.792969 L 9.367188 -16.140625 C 8.65625 -16.800781 7.824219 -17.144531 6.847656 -17.144531 L 3.59375 -17.144531 C 1.613281 -17.144531 -0.0234375 -15.503906 -0.0234375 -13.523438 L -0.0234375 -2.152344 C -0.0234375 -0.953125 0.953125 0.0234375 2.128906 0.0234375 C 3.324219 0.0234375 4.207031 -0.953125 4.207031 -2.152344 Z M 8.316406 -8.484375 L 4.253906 -8.484375 L 4.253906 -12.914062 L 8.316406 -12.863281 Z M 8.316406 -8.484375 "/></g></g></g><g clip-path="url(#c9c59e794c)"><g clip-path="url(#e5cc8424d6)"><path fill="#397dc9" d="M 81.285156 204.796875 L 120.574219 204.796875 L 120.574219 244.082031 L 81.285156 244.082031 Z M 81.285156 204.796875 " fill-opacity="1" fill-rule="nonzero"/></g></g><g clip-path="url(#ac407ea435)"><g clip-path="url(#55a0e7e609)"><path fill="#ffffff" d="M 85.796875 209.132812 L 89.988281 209.132812 L 89.988281 213.324219 L 85.796875 213.324219 Z M 85.796875 209.132812 " fill-opacity="1" fill-rule="nonzero"/></g></g><g clip-path="url(#d890f28b17)"><g clip-path="url(#e73aeaf0b1)"><path fill="#ffffff" d="M 111.871094 209.132812 L 116.0625 209.132812 L 116.0625 213.324219 L 111.871094 213.324219 Z M 111.871094 209.132812 " fill-opacity="1" fill-rule="nonzero"/></g></g><g clip-path="url(#18b9d025a7)"><g clip-path="url(#4e52f908e0)"><path fill="#ffffff" d="M 85.796875 235.324219 L 89.988281 235.324219 L 89.988281 239.515625 L 85.796875 239.515625 Z M 85.796875 235.324219 " fill-opacity="1" fill-rule="nonzero"/></g></g><g clip-path="url(#7cd50566c3)"><g clip-path="url(#bd4d92458a)"><path fill="#ffffff" d="M 111.871094 235.324219 L 116.0625 235.324219 L 116.0625 239.515625 L 111.871094 239.515625 Z M 111.871094 235.324219 " fill-opacity="1" fill-rule="nonzero"/></g></g><g fill="#ffffff" fill-opacity="1"><g transform="translate(94.103671, 233.406805)"><g><path d="M 12.691406 -10.464844 L 12.691406 -11.421875 C 12.691406 -12.472656 12.277344 -13.328125 11.542969 -14.0625 L 9.464844 -16.066406 C 8.730469 -16.75 7.898438 -17.117188 6.894531 -17.117188 L 2.128906 -17.117188 C 0.929688 -17.117188 -0.0234375 -16.164062 -0.0234375 -14.964844 L -0.0234375 -2.078125 C -0.0234375 -0.90625 0.929688 0.0507812 2.128906 0.0507812 C 3.300781 0.0507812 4.230469 -0.90625 4.230469 -2.078125 L 4.230469 -8.363281 L 8.414062 -3.277344 L 8.414062 -2.078125 C 8.414062 -0.953125 9.316406 0.0507812 10.515625 0.0507812 C 11.640625 0.0507812 12.59375 -0.90625 12.59375 -2.078125 L 12.59375 -3.324219 C 12.59375 -4.867188 12.054688 -6.039062 10.539062 -6.96875 C 11.910156 -7.65625 12.691406 -8.78125 12.691406 -10.464844 Z M 4.230469 -12.839844 L 8.414062 -12.839844 L 8.414062 -8.730469 L 4.230469 -8.730469 Z M 4.230469 -12.839844 "/></g></g></g><g clip-path="url(#615c7471fa)"><g clip-path="url(#84690eb32d)"><path fill="#ef3220" d="M 125.160156 204.796875 L 164.445312 204.796875 L 164.445312 244.082031 L 125.160156 244.082031 Z M 125.160156 204.796875 " fill-opacity="1" fill-rule="nonzero"/></g></g><g clip-path="url(#f6935e7833)"><g clip-path="url(#be4f6fa5a9)"><path fill="#ffffff" d="M 129.667969 209.132812 L 133.859375 209.132812 L 133.859375 213.324219 L 129.667969 213.324219 Z M 129.667969 209.132812 " fill-opacity="1" fill-rule="nonzero"/></g></g><g clip-path="url(#305e6aa821)"><g clip-path="url(#b35805017d)"><path fill="#ffffff" d="M 155.742188 209.132812 L 159.933594 209.132812 L 159.933594 213.324219 L 155.742188 213.324219 Z M 155.742188 209.132812 " fill-opacity="1" fill-rule="nonzero"/></g></g><g clip-path="url(#12465605f2)"><g clip-path="url(#422fd01252)"><path fill="#ffffff" d="M 129.667969 235.324219 L 133.859375 235.324219 L 133.859375 239.515625 L 129.667969 239.515625 Z M 129.667969 235.324219 " fill-opacity="1" fill-rule="nonzero"/></g></g><g clip-path="url(#a0eca03000)"><g clip-path="url(#99ec3f9de8)"><path fill="#ffffff" d="M 155.742188 235.324219 L 159.933594 235.324219 L 159.933594 239.515625 L 155.742188 239.515625 Z M 155.742188 235.324219 " fill-opacity="1" fill-rule="nonzero"/></g></g><g fill="#ffffff" fill-opacity="1"><g transform="translate(138.202067, 233.406805)"><g><path d="M -0.0234375 -13.476562 L -0.0234375 -3.644531 C -0.0234375 -1.882812 1.785156 -0.0234375 3.59375 -0.0234375 L 8.707031 -0.0234375 C 10.515625 -0.0234375 12.203125 -1.882812 12.203125 -3.644531 L 12.203125 -13.476562 C 12.203125 -15.503906 10.515625 -17.09375 8.582031 -17.09375 L 3.691406 -17.09375 C 1.734375 -17.09375 -0.0234375 -15.601562 -0.0234375 -13.476562 Z M 7.921875 -12.8125 L 7.921875 -4.253906 L 4.253906 -4.253906 L 4.253906 -12.8125 Z M 7.921875 -12.8125 "/></g></g></g><g clip-path="url(#7ed2e06d3c)"><g clip-path="url(#39d87fe4cd)"><path fill="#397dc9" d="M 169.125 204.796875 L 208.414062 204.796875 L 208.414062 244.082031 L 169.125 244.082031 Z M 169.125 204.796875 " fill-opacity="1" fill-rule="nonzero"/></g></g><g clip-path="url(#1e2fbeb1e2)"><g clip-path="url(#e608845687)"><path fill="#ffffff" d="M 173.636719 209.132812 L 177.828125 209.132812 L 177.828125 213.324219 L 173.636719 213.324219 Z M 173.636719 209.132812 " fill-opacity="1" fill-rule="nonzero"/></g></g><g clip-path="url(#2a44eae482)"><g clip-path="url(#f2f35a7963)"><path fill="#ffffff" d="M 199.710938 209.132812 L 203.902344 209.132812 L 203.902344 213.324219 L 199.710938 213.324219 Z M 199.710938 209.132812 " fill-opacity="1" fill-rule="nonzero"/></g></g><g clip-path="url(#4915263c63)"><g clip-path="url(#ef5d9feea1)"><path fill="#ffffff" d="M 173.636719 235.324219 L 177.828125 235.324219 L 177.828125 239.515625 L 173.636719 239.515625 Z M 173.636719 235.324219 " fill-opacity="1" fill-rule="nonzero"/></g></g><g clip-path="url(#10942abad9)"><g clip-path="url(#d1bf797192)"><path fill="#ffffff" d="M 199.710938 235.324219 L 203.902344 235.324219 L 203.902344 239.515625 L 199.710938 239.515625 Z M 199.710938 235.324219 " fill-opacity="1" fill-rule="nonzero"/></g></g><g fill="#ffffff" fill-opacity="1"><g transform="translate(182.856815, 233.406805)"><g><path d="M 4.28125 -12.839844 L 9.046875 -12.839844 C 10.199219 -12.839844 11.199219 -13.839844 11.199219 -15.015625 C 11.199219 -16.164062 10.246094 -17.117188 9.046875 -17.117188 L 3.59375 -17.117188 C 1.613281 -17.117188 0 -15.503906 0 -13.5 L 0 -1.980469 C 0 0.808594 4.28125 0.808594 4.28125 -1.980469 C 4.28125 -3.421875 4.28125 -4.28125 4.28125 -5.722656 L 8.070312 -5.722656 C 9.269531 -5.722656 10.246094 -6.726562 10.246094 -7.875 C 10.246094 -9.046875 9.269531 -10.003906 8.117188 -10.003906 C 6.503906 -10.003906 5.894531 -10.003906 4.28125 -10.003906 Z M 4.28125 -12.839844 "/></g></g></g><g clip-path="url(#31ef8268ae)"><g clip-path="url(#65033f07a7)"><path fill="#ea7e16" d="M 213.09375 204.796875 L 252.378906 204.796875 L 252.378906 244.082031 L 213.09375 244.082031 Z M 213.09375 204.796875 " fill-opacity="1" fill-rule="nonzero"/></g></g><g clip-path="url(#009fbc3f71)"><g clip-path="url(#0400740cde)"><path fill="#ffffff" d="M 217.605469 209.132812 L 221.796875 209.132812 L 221.796875 213.324219 L 217.605469 213.324219 Z M 217.605469 209.132812 " fill-opacity="1" fill-rule="nonzero"/></g></g><g clip-path="url(#9a34e8f22b)"><g clip-path="url(#4d6ac8faae)"><path fill="#ffffff" d="M 243.679688 209.132812 L 247.871094 209.132812 L 247.871094 213.324219 L 243.679688 213.324219 Z M 243.679688 209.132812 " fill-opacity="1" fill-rule="nonzero"/></g></g><g clip-path="url(#6c652c20f8)"><g clip-path="url(#b66f832f2f)"><path fill="#ffffff" d="M 217.605469 235.324219 L 221.796875 235.324219 L 221.796875 239.515625 L 217.605469 239.515625 Z M 217.605469 235.324219 " fill-opacity="1" fill-rule="nonzero"/></g></g><g clip-path="url(#66827762c1)"><g clip-path="url(#a8bffd7819)"><path fill="#ffffff" d="M 243.679688 235.324219 L 247.871094 235.324219 L 247.871094 239.515625 L 243.679688 239.515625 Z M 243.679688 235.324219 " fill-opacity="1" fill-rule="nonzero"/></g></g><g fill="#ffffff" fill-opacity="1"><g transform="translate(229.967308, 233.406805)"><g><path d="M 0.195312 -1.90625 C 0.195312 0.855469 4.476562 0.878906 4.476562 -1.90625 L 4.476562 -14.964844 C 4.476562 -17.730469 0.195312 -17.730469 0.195312 -14.941406 Z M 0.195312 -1.90625 "/></g></g></g><g clip-path="url(#46d39033af)"><g clip-path="url(#2b5f05b4ae)"><path fill="#397dc9" d="M 256.878906 204.796875 L 296.167969 204.796875 L 296.167969 244.082031 L 256.878906 244.082031 Z M 256.878906 204.796875 " fill-opacity="1" fill-rule="nonzero"/></g></g><g clip-path="url(#5e97a726ea)"><g clip-path="url(#000b1dff1b)"><path fill="#ffffff" d="M 261.390625 209.132812 L 265.582031 209.132812 L 265.582031 213.324219 L 261.390625 213.324219 Z M 261.390625 209.132812 " fill-opacity="1" fill-rule="nonzero"/></g></g><g clip-path="url(#4213ab1b5b)"><g clip-path="url(#a5b568c90c)"><path fill="#ffffff" d="M 287.464844 209.132812 L 291.65625 209.132812 L 291.65625 213.324219 L 287.464844 213.324219 Z M 287.464844 209.132812 " fill-opacity="1" fill-rule="nonzero"/></g></g><g clip-path="url(#282139bb52)"><g clip-path="url(#dbd1d605ce)"><path fill="#ffffff" d="M 261.390625 235.324219 L 265.582031 235.324219 L 265.582031 239.515625 L 261.390625 239.515625 Z M 261.390625 235.324219 " fill-opacity="1" fill-rule="nonzero"/></g></g><g clip-path="url(#808c714acb)"><g clip-path="url(#0b8240ebcd)"><path fill="#ffffff" d="M 287.464844 235.324219 L 291.65625 235.324219 L 291.65625 239.515625 L 287.464844 239.515625 Z M 287.464844 235.324219 " fill-opacity="1" fill-rule="nonzero"/></g></g><g fill="#ffffff" fill-opacity="1"><g transform="translate(270.351072, 233.406805)"><g><path d="M 4.253906 -12.839844 L 9.441406 -12.839844 C 10.589844 -12.839844 11.566406 -13.839844 11.566406 -15.015625 C 11.566406 -16.164062 10.613281 -17.117188 9.441406 -17.117188 L 3.546875 -17.117188 C 1.589844 -17.117188 -0.0234375 -15.503906 -0.0234375 -13.5 L -0.0234375 -12.351562 C -0.0234375 -10.664062 0.34375 -9.34375 2.101562 -8.730469 C 0.21875 -8.070312 -0.0234375 -6.601562 -0.0234375 -4.914062 L -0.0234375 -3.59375 C -0.0234375 -1.613281 1.589844 0.0234375 3.546875 0.0234375 L 9.441406 0.0234375 C 10.589844 -0.0234375 11.566406 -0.953125 11.566406 -2.101562 C 11.566406 -3.300781 10.613281 -4.253906 9.441406 -4.253906 L 4.253906 -4.253906 C 4.253906 -4.914062 4.253906 -5.601562 4.253906 -6.308594 L 9.023438 -6.308594 C 10.171875 -6.308594 11.152344 -7.289062 11.152344 -8.4375 C 11.152344 -9.636719 10.171875 -10.589844 9.023438 -10.589844 C 7.410156 -10.589844 5.84375 -10.589844 4.253906 -10.589844 Z M 4.253906 -12.839844 "/></g></g></g><g clip-path="url(#3f2d6a3eab)"><g clip-path="url(#8752c2bd12)"><path fill="#ef3220" d="M 300.667969 204.75 L 339.953125 204.75 L 339.953125 244.039062 L 300.667969 244.039062 Z M 300.667969 204.75 " fill-opacity="1" fill-rule="nonzero"/></g></g><g clip-path="url(#7eb502c243)"><g clip-path="url(#88558155c2)"><path fill="#ffffff" d="M 305.179688 209.089844 L 309.367188 209.089844 L 309.367188 213.277344 L 305.179688 213.277344 Z M 305.179688 209.089844 " fill-opacity="1" fill-rule="nonzero"/></g></g><g clip-path="url(#dd27ff494c)"><g clip-path="url(#563051fe44)"><path fill="#ffffff" d="M 331.253906 209.089844 L 335.441406 209.089844 L 335.441406 213.277344 L 331.253906 213.277344 Z M 331.253906 209.089844 " fill-opacity="1" fill-rule="nonzero"/></g></g><g clip-path="url(#6a1cdce589)"><g clip-path="url(#43dc02b912)"><path fill="#ffffff" d="M 305.179688 235.28125 L 309.367188 235.28125 L 309.367188 239.46875 L 305.179688 239.46875 Z M 305.179688 235.28125 " fill-opacity="1" fill-rule="nonzero"/></g></g><g clip-path="url(#3dd49d0b13)"><g clip-path="url(#df3d208063)"><path fill="#ffffff" d="M 331.253906 235.28125 L 335.441406 235.28125 L 335.441406 239.46875 L 331.253906 239.46875 Z M 331.253906 235.28125 " fill-opacity="1" fill-rule="nonzero"/></g></g><g fill="#ffffff" fill-opacity="1"><g transform="translate(314.933946, 233.3627)"><g><path d="M 3.71875 0 L 7.996094 0 C 10.808594 0 10.808594 -4.304688 7.996094 -4.304688 C 5.871094 -4.304688 6.480469 -4.253906 4.328125 -4.253906 L 4.328125 -15.113281 C 4.328125 -16.261719 3.375 -17.214844 2.152344 -17.214844 C 1.003906 -17.214844 0 -16.261719 0 -15.113281 L 0 -3.691406 C 0 -1.664062 1.6875 0 3.71875 0 Z M 3.71875 0 "/></g></g></g><g clip-path="url(#642dc464ff)"><path fill="#397dc9" d="M 175.703125 268.894531 L 164.394531 268.894531 L 161.808594 271.855469 L 161.757812 271.855469 C 161.253906 271.855469 160.761719 271.996094 160.339844 272.261719 L 141.683594 283.890625 C 140.898438 284.378906 140.417969 285.238281 140.417969 286.164062 L 140.417969 286.316406 C 140.417969 287.640625 141.390625 288.769531 142.703125 288.964844 L 158.757812 291.378906 C 159.214844 291.445312 159.679688 291.394531 160.113281 291.230469 L 174.789062 285.632812 C 175.828125 285.234375 176.515625 284.238281 176.515625 283.128906 L 176.515625 279.546875 C 176.515625 279.359375 176.488281 279.179688 176.453125 278.996094 L 176.515625 279.03125 Z M 234.085938 283.890625 L 215.429688 272.261719 C 215.003906 271.996094 214.511719 271.855469 214.011719 271.855469 L 211.425781 268.894531 L 200.113281 268.894531 L 199.304688 279.03125 L 199.308594 279.027344 C 199.273438 279.199219 199.25 279.371094 199.25 279.546875 L 199.25 283.128906 C 199.25 284.238281 199.9375 285.234375 200.976562 285.632812 L 215.65625 291.230469 C 216.085938 291.394531 216.554688 291.445312 217.007812 291.378906 L 233.066406 288.964844 C 234.378906 288.769531 235.347656 287.640625 235.347656 286.316406 L 235.347656 286.164062 C 235.347656 285.238281 234.871094 284.378906 234.085938 283.890625 Z M 130.882812 167.683594 C 129.652344 167 128.414062 166.34375 127.160156 165.707031 C 124.636719 164.050781 121.894531 162.804688 118.992188 161.972656 C 118.203125 161.648438 117.417969 161.328125 116.621094 161.023438 C 115.828125 160.714844 115.136719 160.765625 114.578125 161.039062 C 114.066406 160.964844 113.554688 160.90625 113.035156 160.855469 C 111.3125 160.699219 110.246094 162.351562 110.074219 163.816406 C 109.867188 165.617188 111.148438 167.113281 112.84375 167.527344 C 113.039062 167.574219 113.222656 167.597656 113.40625 167.613281 C 113.511719 167.679688 113.625 167.742188 113.746094 167.800781 C 116.195312 168.992188 118.5625 170.316406 120.816406 171.839844 C 120.871094 171.878906 121.074219 172.039062 121.3125 172.21875 C 121.238281 172.292969 121.164062 172.367188 121.089844 172.4375 C 120.046875 173.46875 119.007812 174.503906 117.957031 175.527344 C 117.214844 176.253906 116.476562 177.042969 115.578125 177.582031 C 114.328125 178.328125 114.324219 178.144531 113.585938 177.058594 C 112.011719 174.738281 110.796875 172.253906 109.90625 169.597656 C 109.5625 168.582031 108.859375 167.976562 108.054688 167.714844 C 107.617188 167.410156 107.054688 167.226562 106.371094 167.238281 C 104.097656 167.277344 102.285156 168.765625 102.070312 171.105469 C 101.84375 173.527344 103.441406 176.296875 104.378906 178.464844 C 105.421875 180.878906 106.554688 183.269531 107.839844 185.570312 C 108.941406 187.539062 110.527344 189.109375 112.992188 188.488281 C 115.175781 187.933594 117.34375 186.199219 119.203125 184.980469 C 120.289062 184.273438 121.347656 183.535156 122.390625 182.773438 C 123.425781 182.015625 124.445312 181.234375 125.449219 180.429688 C 126.375 179.691406 127.855469 178.601562 129.1875 177.339844 C 130.574219 176.027344 131.804688 174.523438 132.070312 173.027344 C 132.609375 172.242188 132.800781 171.242188 132.371094 170.304688 C 132.34375 169.253906 131.722656 168.15625 130.882812 167.683594 Z M 272.921875 171.105469 C 272.707031 168.765625 270.894531 167.277344 268.621094 167.238281 C 267.9375 167.226562 267.375 167.410156 266.9375 167.714844 C 266.132812 167.976562 265.429688 168.582031 265.085938 169.597656 C 264.195312 172.253906 262.976562 174.738281 261.40625 177.058594 C 260.667969 178.144531 260.664062 178.328125 259.414062 177.582031 C 258.515625 177.042969 257.777344 176.253906 257.035156 175.527344 C 255.984375 174.503906 254.945312 173.46875 253.902344 172.4375 C 253.828125 172.367188 253.753906 172.292969 253.679688 172.21875 C 253.917969 172.039062 254.121094 171.878906 254.175781 171.839844 C 256.429688 170.316406 258.796875 168.992188 261.246094 167.800781 C 261.367188 167.742188 261.480469 167.679688 261.585938 167.613281 C 261.769531 167.597656 261.953125 167.574219 262.148438 167.527344 C 263.84375 167.113281 265.125 165.617188 264.914062 163.816406 C 264.746094 162.351562 263.675781 160.699219 261.957031 160.855469 C 261.4375 160.90625 260.925781 160.964844 260.414062 161.039062 C 259.855469 160.765625 259.164062 160.714844 258.371094 161.023438 C 257.578125 161.328125 256.789062 161.648438 256 161.972656 C 253.097656 162.804688 250.355469 164.050781 247.832031 165.707031 C 246.578125 166.34375 245.339844 167 244.113281 167.683594 C 243.265625 168.15625 242.644531 169.253906 242.621094 170.304688 C 242.191406 171.242188 242.382812 172.242188 242.921875 173.027344 C 243.1875 174.523438 244.417969 176.027344 245.804688 177.339844 C 247.136719 178.601562 248.617188 179.691406 249.542969 180.429688 C 250.546875 181.234375 251.566406 182.015625 252.601562 182.773438 C 253.644531 183.535156 254.703125 184.273438 255.785156 184.980469 C 257.648438 186.199219 259.8125 187.933594 262 188.488281 C 264.464844 189.109375 266.050781 187.539062 267.152344 185.570312 C 268.4375 183.269531 269.570312 180.878906 270.613281 178.464844 C 271.550781 176.296875 273.148438 173.527344 272.921875 171.105469 Z M 214.449219 144.851562 C 214.449219 135.132812 214.445312 125.414062 214.449219 115.695312 C 214.453125 106.769531 212.574219 107.347656 205.1875 107.347656 C 195.617188 107.347656 186.046875 107.347656 176.476562 107.347656 C 170.800781 107.347656 163.355469 104.820312 161.140625 111.71875 C 158.550781 119.789062 160.789062 135.449219 161.140625 143.953125 C 161.484375 152.277344 163.320312 150.863281 169.40625 150.085938 C 171.558594 149.808594 173.753906 149.660156 175.96875 149.589844 C 176.058594 151.402344 176.484375 152.652344 178.039062 153.230469 C 178.53125 153.414062 179.171875 153.5 180.054688 153.5 C 180.472656 153.5 180.90625 153.480469 181.320312 153.464844 C 181.730469 153.449219 182.128906 153.429688 182.496094 153.429688 C 184.023438 153.429688 185.585938 153.46875 187.097656 153.503906 C 188.617188 153.539062 190.183594 153.578125 191.71875 153.578125 C 193.425781 153.578125 194.910156 153.53125 196.253906 153.433594 C 198.296875 153.285156 199.289062 152.339844 199.582031 150.09375 C 201.765625 150.21875 214.695312 151.570312 214.449219 144.851562 Z M 163.273438 170.421875 C 167.515625 165.246094 165.484375 157.007812 158.992188 154.804688 C 157.855469 154.421875 156.695312 154.292969 155.5625 154.378906 C 155.34375 154.347656 155.109375 154.339844 154.863281 154.355469 C 148.371094 154.871094 143.65625 163.625 146.710938 169.347656 C 150.0625 175.628906 158.996094 175.640625 163.273438 170.421875 Z M 216 154.804688 C 217.132812 154.421875 218.296875 154.292969 219.433594 154.378906 C 219.648438 154.347656 219.878906 154.339844 220.128906 154.355469 C 226.621094 154.871094 231.335938 163.625 228.28125 169.347656 C 224.925781 175.628906 215.996094 175.640625 211.71875 170.421875 C 207.476562 165.246094 209.507812 157.007812 216 154.804688 " fill-opacity="1" fill-rule="nonzero"/></g><g clip-path="url(#0c22f178c1)"><path fill="#f8e505" d="M 199.914062 239.40625 C 201.742188 240.425781 205.554688 240.160156 207.519531 239.628906 C 207.996094 239.5 208.394531 239.332031 208.734375 239.136719 C 210.503906 239.140625 212.222656 238.144531 212.261719 236.109375 C 212.355469 230.894531 212.148438 225.722656 209.871094 220.8125 C 207.800781 216.351562 204.617188 212.402344 200.414062 209.210938 C 200.019531 208.910156 199.601562 208.703125 199.183594 208.570312 C 198.039062 207.9375 196.464844 207.882812 195.253906 208.453125 C 193.765625 209.15625 192.089844 209.769531 190.742188 210.65625 C 189.429688 211.519531 188.792969 212.902344 189.285156 214.308594 C 189.535156 215.03125 190.117188 215.675781 190.859375 216.117188 C 194.65625 221.148438 197.175781 226.847656 197.746094 232.839844 C 197.960938 235.097656 197.335938 237.964844 199.914062 239.40625 Z M 170.980469 190.984375 L 181.085938 190.984375 C 182.640625 190.984375 183.050781 190.34375 183.125 189.804688 C 183.300781 188.515625 181.324219 187.242188 180.476562 187.007812 C 179.996094 186.875 179.40625 186.808594 178.679688 186.808594 C 178.039062 186.808594 177.386719 186.855469 176.753906 186.902344 C 176.210938 186.941406 175.699219 186.976562 175.277344 186.976562 C 174.773438 186.976562 173.96875 186.902344 173.042969 186.808594 C 171.753906 186.683594 170.292969 186.539062 168.980469 186.539062 C 167.542969 186.539062 166.578125 186.710938 165.9375 187.082031 C 165.40625 187.390625 164 188.207031 164.304688 189.339844 C 164.535156 190.195312 165.503906 190.984375 170.980469 190.984375 Z M 153.019531 166.078125 C 152.414062 165.738281 151.824219 165.632812 151.277344 165.691406 C 150.089844 165.609375 148.941406 166.238281 148.625 167.828125 C 147.886719 171.53125 146.289062 174.832031 144.335938 177.960938 C 143.863281 178.664062 143.367188 179.359375 142.863281 180.058594 C 142.363281 179.886719 141.90625 179.773438 141.554688 179.703125 C 140.902344 179.570312 140.257812 179.5 139.636719 179.5 C 138.496094 179.5 137.441406 179.730469 136.492188 180.171875 C 136.335938 180.09375 136.175781 180.019531 136.003906 179.957031 C 133.65625 179.117188 131.410156 178.285156 129.1875 177.339844 C 127.855469 178.601562 126.375 179.691406 125.449219 180.429688 C 124.445312 181.234375 123.425781 182.015625 122.390625 182.773438 C 123.863281 184.039062 125.410156 185.21875 127.035156 186.292969 C 128.6875 187.382812 130.320312 188.125 132.042969 188.832031 C 132.140625 189.601562 132.34375 190.34375 132.660156 191.019531 C 133.238281 192.261719 134.148438 193.230469 135.359375 193.898438 L 135.453125 193.949219 L 135.53125 194.027344 C 136.015625 194.507812 136.542969 194.902344 137.105469 195.191406 C 138.058594 195.6875 139.140625 195.953125 140.242188 195.953125 C 141.984375 195.953125 143.550781 195.316406 144.648438 194.160156 C 145.136719 193.648438 145.53125 193.03125 145.816406 192.320312 L 145.871094 192.1875 L 145.96875 192.085938 C 146.472656 191.550781 146.878906 190.964844 147.179688 190.339844 C 147.539062 189.597656 147.730469 188.816406 147.757812 188.019531 C 149.3125 186.828125 150.625 185.117188 151.617188 183.796875 C 155.371094 178.796875 160.621094 170.363281 153.019531 166.078125 Z M 171.777344 240.101562 C 169.410156 240.183594 167.042969 240.269531 164.675781 240.351562 C 163.582031 240.386719 162.582031 240.808594 161.898438 241.464844 C 161.894531 241.472656 161.886719 241.476562 161.882812 241.480469 C 161.863281 241.5 161.839844 241.523438 161.820312 241.542969 C 161.3125 242.035156 160.988281 242.703125 160.988281 243.546875 L 160.988281 271.96875 C 161.234375 271.898438 161.496094 271.855469 161.757812 271.855469 L 170.613281 271.855469 C 171.527344 271.855469 172.375 272.320312 172.867188 273.085938 L 175.925781 277.839844 C 175.9375 277.71875 175.949219 277.597656 175.949219 277.46875 L 175.949219 243.964844 C 175.949219 243.117188 175.621094 242.445312 175.109375 241.953125 C 174.515625 240.871094 173.230469 240.050781 171.777344 240.101562 Z M 196.980469 190.984375 L 210.507812 190.984375 C 211.917969 190.984375 212.300781 190.28125 212.40625 189.863281 C 212.691406 188.75 211.515625 187.453125 210.804688 187.070312 C 210.601562 186.960938 210.359375 186.90625 210.0625 186.90625 C 209.855469 186.90625 209.644531 186.933594 209.457031 186.953125 C 209.324219 186.96875 209.183594 186.984375 209.074219 186.984375 C 209.070312 186.984375 209.070312 186.984375 209.070312 186.984375 C 208.28125 186.875 207.386719 186.816406 206.34375 186.816406 C 205.414062 186.816406 204.472656 186.859375 203.5625 186.902344 C 202.667969 186.941406 201.824219 186.976562 201.003906 186.976562 L 192.386719 186.976562 C 192.152344 186.976562 191.761719 186.9375 191.347656 186.894531 C 190.769531 186.835938 190.109375 186.765625 189.507812 186.765625 C 188.785156 186.765625 188.273438 186.867188 187.902344 187.082031 C 187.480469 187.324219 186.203125 188.058594 186.488281 189.128906 C 186.664062 189.78125 186.988281 190.988281 195.898438 190.988281 C 196.355469 190.988281 196.730469 190.988281 196.980469 190.984375 Z M 184.25 210.65625 C 182.902344 209.769531 181.226562 209.15625 179.734375 208.453125 C 178.527344 207.882812 176.953125 207.9375 175.808594 208.570312 C 175.386719 208.703125 174.972656 208.910156 174.578125 209.210938 C 170.375 212.402344 167.191406 216.351562 165.121094 220.8125 C 162.84375 225.722656 162.636719 230.894531 162.730469 236.109375 C 162.769531 238.144531 164.488281 239.140625 166.257812 239.136719 C 166.597656 239.332031 166.996094 239.5 167.472656 239.628906 C 169.4375 240.160156 173.25 240.425781 175.074219 239.40625 C 177.65625 237.964844 177.027344 235.097656 177.242188 232.839844 C 177.816406 226.847656 180.335938 221.148438 184.132812 216.117188 C 184.875 215.675781 185.457031 215.03125 185.707031 214.308594 C 186.199219 212.902344 185.5625 211.519531 184.25 210.65625 Z M 213.109375 241.480469 C 213.101562 241.476562 213.097656 241.472656 213.09375 241.464844 C 212.410156 240.808594 211.410156 240.386719 210.316406 240.351562 C 207.949219 240.269531 205.582031 240.183594 203.214844 240.101562 C 201.761719 240.050781 200.476562 240.871094 199.882812 241.953125 C 199.371094 242.445312 199.042969 243.117188 199.042969 243.964844 L 199.042969 277.46875 C 199.042969 277.972656 199.160156 278.410156 199.359375 278.789062 C 199.429688 278.546875 199.539062 278.3125 199.675781 278.097656 L 202.898438 273.085938 C 203.390625 272.320312 204.242188 271.855469 205.152344 271.855469 L 214.003906 271.855469 L 214.003906 243.546875 C 214.003906 242.703125 213.679688 242.035156 213.171875 241.542969 C 213.152344 241.523438 213.128906 241.5 213.109375 241.480469 Z M 249.542969 180.429688 C 248.617188 179.691406 247.136719 178.601562 245.804688 177.339844 C 243.582031 178.285156 241.335938 179.117188 238.988281 179.957031 C 238.816406 180.019531 238.65625 180.09375 238.5 180.171875 C 237.550781 179.730469 236.492188 179.5 235.355469 179.5 C 234.734375 179.5 234.089844 179.570312 233.4375 179.703125 C 233.085938 179.773438 232.628906 179.886719 232.128906 180.058594 C 231.625 179.359375 231.128906 178.664062 230.65625 177.960938 C 228.699219 174.832031 227.105469 171.53125 226.367188 167.828125 C 226.050781 166.238281 224.902344 165.609375 223.714844 165.691406 C 223.167969 165.632812 222.578125 165.738281 221.972656 166.078125 C 214.371094 170.363281 219.621094 178.796875 223.375 183.796875 C 224.367188 185.117188 225.679688 186.828125 227.230469 188.019531 C 227.261719 188.816406 227.453125 189.597656 227.8125 190.339844 C 228.113281 190.964844 228.519531 191.550781 229.023438 192.085938 L 229.121094 192.1875 L 229.175781 192.320312 C 229.460938 193.03125 229.855469 193.648438 230.339844 194.160156 C 231.441406 195.316406 233.007812 195.953125 234.75 195.953125 C 235.847656 195.953125 236.933594 195.6875 237.886719 195.191406 C 238.445312 194.902344 238.976562 194.507812 239.460938 194.027344 L 239.539062 193.949219 L 239.632812 193.898438 C 240.84375 193.230469 241.753906 192.261719 242.332031 191.019531 C 242.648438 190.34375 242.851562 189.601562 242.949219 188.832031 C 244.671875 188.125 246.304688 187.382812 247.957031 186.292969 C 249.578125 185.21875 251.125 184.039062 252.601562 182.773438 C 251.566406 182.015625 250.546875 181.234375 249.542969 180.429688 Z M 197.441406 142.574219 L 197.441406 138.761719 C 197.441406 137.808594 195.960938 137.808594 195.960938 138.761719 L 195.960938 142.574219 C 195.960938 143.527344 197.441406 143.527344 197.441406 142.574219 Z M 200.402344 186.328125 L 200.871094 186.328125 L 210.507812 186.324219 C 212.058594 186.324219 212.472656 185.6875 212.546875 185.148438 C 212.722656 183.859375 210.746094 182.585938 209.898438 182.351562 C 209.414062 182.214844 208.828125 182.152344 208.097656 182.152344 C 207.460938 182.152344 206.804688 182.199219 206.175781 182.246094 C 205.632812 182.285156 205.121094 182.324219 204.699219 182.324219 C 204.195312 182.324219 203.390625 182.242188 202.464844 182.152344 C 201.175781 182.023438 199.714844 181.882812 198.402344 181.882812 C 196.964844 181.882812 195.996094 182.054688 195.359375 182.425781 C 194.828125 182.734375 193.421875 183.550781 193.726562 184.679688 C 193.957031 185.535156 194.925781 186.328125 200.402344 186.328125 Z M 193.234375 142.757812 L 193.234375 138.582031 C 193.234375 137.628906 191.753906 137.628906 191.753906 138.582031 L 191.753906 142.757812 C 191.753906 143.707031 193.234375 143.710938 193.234375 142.757812 Z M 201.515625 142.511719 L 201.515625 138.828125 C 201.515625 137.875 200.035156 137.875 200.035156 138.828125 L 200.035156 142.511719 C 200.035156 143.460938 201.515625 143.464844 201.515625 142.511719 Z M 202.800781 122.703125 C 204.121094 122.703125 205.195312 121.628906 205.195312 120.308594 C 205.195312 118.984375 204.121094 117.910156 202.800781 117.910156 C 201.476562 117.910156 200.402344 118.984375 200.402344 120.308594 C 200.402344 121.628906 201.476562 122.703125 202.800781 122.703125 Z M 175.480469 142.378906 L 175.480469 138.960938 C 175.480469 138.007812 174 138.007812 174 138.960938 L 174 142.378906 C 174 143.332031 175.480469 143.332031 175.480469 142.378906 Z M 178.472656 138.828125 L 178.472656 142.511719 C 178.472656 143.460938 179.949219 143.464844 179.949219 142.511719 L 179.949219 138.828125 C 179.949219 137.875 178.472656 137.875 178.472656 138.828125 Z M 173.9375 186.332031 C 174.394531 186.332031 174.765625 186.332031 175.019531 186.328125 L 175.300781 186.324219 L 188.546875 186.324219 C 189.957031 186.324219 190.34375 185.625 190.449219 185.207031 C 190.730469 184.089844 189.554688 182.796875 188.84375 182.414062 C 188.640625 182.304688 188.398438 182.25 188.101562 182.25 C 187.894531 182.25 187.683594 182.277344 187.496094 182.296875 C 187.363281 182.3125 187.222656 182.328125 187.113281 182.328125 C 187.113281 182.328125 187.109375 182.328125 187.109375 182.328125 C 186.320312 182.214844 185.425781 182.160156 184.382812 182.160156 C 183.457031 182.160156 182.515625 182.203125 181.601562 182.246094 C 180.707031 182.285156 179.863281 182.324219 179.042969 182.324219 L 170.429688 182.324219 C 170.191406 182.324219 169.800781 182.28125 169.390625 182.238281 C 168.808594 182.179688 168.152344 182.109375 167.550781 182.109375 C 166.828125 182.109375 166.316406 182.210938 165.941406 182.425781 C 165.523438 182.664062 164.242188 183.402344 164.53125 184.472656 C 164.703125 185.125 165.027344 186.332031 173.9375 186.332031 Z M 178.324219 122.703125 C 179.644531 122.703125 180.722656 121.628906 180.722656 120.308594 C 180.722656 118.984375 179.644531 117.910156 178.324219 117.910156 C 177 117.910156 175.925781 118.984375 175.925781 120.308594 C 175.925781 121.628906 177 122.703125 178.324219 122.703125 Z M 184.421875 142.574219 L 184.421875 138.761719 C 184.421875 137.808594 182.945312 137.808594 182.945312 138.761719 L 182.945312 142.574219 C 182.945312 143.527344 184.421875 143.527344 184.421875 142.574219 Z M 187.808594 142.761719 L 187.808594 138.578125 C 187.808594 137.625 189.289062 137.628906 189.289062 138.578125 L 189.289062 142.761719 C 189.289062 143.714844 187.808594 143.710938 187.808594 142.761719 " fill-opacity="1" fill-rule="nonzero"/></g><g clip-path="url(#8602c90b09)"><path fill="#ef3220" d="M 175.195312 149.617188 C 175.25 150.777344 175.457031 151.898438 176.109375 152.757812 C 183.871094 152.757812 191.636719 152.757812 199.398438 152.757812 C 199.941406 152.0625 200.21875 151.160156 200.351562 150.144531 C 199.859375 150.113281 199.507812 150.085938 199.355469 150.085938 C 191.511719 150.085938 183.191406 149.285156 175.195312 149.617188 Z M 215.796875 116.011719 C 215.351562 115.863281 214.898438 115.75 214.449219 115.675781 C 214.449219 115.683594 214.449219 115.6875 214.449219 115.695312 C 214.449219 122.164062 214.449219 128.640625 214.449219 135.113281 C 216.597656 134.59375 218.613281 133.421875 220.078125 131.628906 C 224.320312 126.457031 222.289062 118.214844 215.796875 116.011719 Z M 160.285156 115.78125 C 154.476562 117.246094 150.566406 125.21875 153.417969 130.554688 C 154.949219 133.429688 157.652344 134.984375 160.539062 135.335938 C 160.039062 128.875 159.546875 121.460938 160.285156 115.78125 Z M 148.320312 185.359375 C 147.996094 181.726562 145.078125 179.632812 141.707031 178.945312 C 139.476562 178.492188 137.34375 178.753906 135.546875 179.792969 C 135.703125 179.847656 135.851562 179.902344 136.003906 179.957031 C 139.40625 181.175781 139.730469 185.625 138.019531 188.414062 C 137.332031 189.539062 136.261719 189.917969 135.25 189.792969 C 134.84375 189.839844 134.398438 189.78125 133.910156 189.585938 C 132.988281 189.214844 132.101562 188.863281 131.230469 188.492188 C 131.304688 189.476562 131.542969 190.445312 131.964844 191.347656 C 132.644531 192.8125 133.714844 193.871094 134.988281 194.570312 C 135.507812 195.089844 136.09375 195.53125 136.746094 195.875 C 139.464844 197.292969 143.054688 196.953125 145.207031 194.691406 C 145.785156 194.082031 146.21875 193.375 146.527344 192.613281 C 147.070312 192.039062 147.523438 191.394531 147.871094 190.675781 C 148.59375 189.179688 148.6875 187.625 148.34375 186.15625 C 148.347656 185.894531 148.34375 185.628906 148.320312 185.359375 Z M 241.082031 189.585938 C 240.59375 189.78125 240.148438 189.839844 239.742188 189.792969 C 238.726562 189.917969 237.660156 189.539062 236.972656 188.414062 C 235.261719 185.625 235.585938 181.175781 238.988281 179.957031 C 239.140625 179.902344 239.289062 179.847656 239.441406 179.792969 C 237.648438 178.753906 235.515625 178.492188 233.285156 178.945312 C 229.914062 179.632812 226.996094 181.726562 226.671875 185.359375 C 226.648438 185.628906 226.644531 185.894531 226.648438 186.15625 C 226.300781 187.625 226.398438 189.179688 227.121094 190.675781 C 227.464844 191.394531 227.921875 192.039062 228.460938 192.613281 C 228.773438 193.375 229.207031 194.082031 229.785156 194.691406 C 231.9375 196.953125 235.527344 197.292969 238.242188 195.875 C 238.898438 195.53125 239.484375 195.089844 240.003906 194.570312 C 241.273438 193.871094 242.34375 192.8125 243.027344 191.347656 C 243.449219 190.445312 243.683594 189.476562 243.761719 188.492188 C 242.890625 188.863281 242.003906 189.214844 241.082031 189.585938 Z M 176.695312 120.304688 C 176.695312 121.207031 177.425781 121.933594 178.324219 121.933594 C 179.222656 121.933594 179.949219 121.207031 179.949219 120.304688 C 179.949219 119.40625 179.222656 118.679688 178.324219 118.679688 C 177.425781 118.679688 176.695312 119.40625 176.695312 120.304688 Z M 166.5 125.828125 C 165.289062 122.269531 165.757812 117.328125 169.199219 115.816406 C 169.984375 114.988281 171 114.390625 172.242188 114.148438 C 176.476562 113.328125 181.414062 116.738281 183.058594 120.523438 C 185.039062 125.085938 182.136719 129.910156 177.613281 131.347656 C 172.628906 132.929688 168.160156 130.6875 166.5 125.828125 Z M 201.171875 120.304688 C 201.171875 121.207031 201.902344 121.933594 202.800781 121.933594 C 203.699219 121.933594 204.425781 121.207031 204.425781 120.304688 C 204.425781 119.40625 203.699219 118.679688 202.800781 118.679688 C 201.902344 118.679688 201.171875 119.40625 201.171875 120.304688 Z M 191.800781 123.238281 C 191.632812 122.394531 191.5625 121.550781 191.613281 120.746094 C 191.941406 115.222656 196.820312 113.019531 201.324219 114.046875 C 203.074219 114.039062 204.800781 114.386719 206.375 115.359375 C 211.570312 118.554688 210.375 124.800781 206.730469 128.554688 C 205.851562 129.765625 204.710938 130.765625 203.347656 131.386719 C 200.707031 132.59375 198.203125 132 196.1875 130.472656 C 193.703125 129.03125 191.925781 126.328125 191.800781 123.238281 Z M 208.664062 210.410156 C 208.722656 208.988281 207.539062 208.097656 206.027344 207.738281 C 205.511719 207.359375 204.757812 207.085938 203.730469 206.988281 C 198.085938 206.457031 192.757812 206.808594 187.144531 207.347656 C 181.578125 207.882812 176.035156 208.425781 170.558594 207.296875 C 167.023438 206.570312 164.816406 208.761719 165.21875 210.675781 C 165.109375 211.074219 165.132812 211.519531 165.328125 212 C 168.261719 219.273438 175.597656 226.667969 188.148438 225.976562 C 200.03125 225.324219 208.34375 218.195312 208.664062 210.410156 Z M 178.976562 239.71875 C 178.574219 235.859375 174.949219 233.636719 170.753906 232.910156 C 166.847656 232.234375 163.179688 233.046875 160.601562 235.574219 C 159.757812 235.898438 159.070312 236.542969 158.804688 237.582031 C 158.746094 237.808594 158.695312 238.039062 158.65625 238.265625 C 157.441406 240.738281 157.308594 243.636719 158.636719 246.070312 C 159.488281 247.625 160.820312 248.753906 162.402344 249.496094 C 163.046875 250.042969 163.773438 250.515625 164.589844 250.878906 C 167.964844 252.386719 172.429688 252.027344 175.105469 249.621094 C 175.828125 248.976562 176.367188 248.226562 176.75 247.414062 C 177.421875 246.808594 177.988281 246.121094 178.421875 245.359375 C 179.316406 243.773438 179.4375 242.121094 179.003906 240.566406 C 179.011719 240.285156 179.003906 240.003906 178.976562 239.71875 Z M 216.335938 238.265625 C 217.550781 240.738281 217.683594 243.636719 216.351562 246.070312 C 215.503906 247.625 214.171875 248.753906 212.59375 249.496094 C 211.945312 250.042969 211.21875 250.515625 210.402344 250.878906 C 207.027344 252.386719 202.5625 252.027344 199.886719 249.621094 C 199.167969 248.976562 198.625 248.226562 198.242188 247.414062 C 197.570312 246.808594 197.003906 246.121094 196.570312 245.359375 C 195.675781 243.773438 195.554688 242.121094 195.984375 240.566406 C 195.980469 240.285156 195.984375 240.003906 196.015625 239.71875 C 196.414062 235.859375 200.046875 233.636719 204.234375 232.910156 C 208.140625 232.234375 211.8125 233.046875 214.386719 235.574219 C 215.234375 235.898438 215.921875 236.542969 216.1875 237.582031 C 216.246094 237.808594 216.296875 238.039062 216.335938 238.265625 " fill-opacity="1" fill-rule="nonzero"/></g><g clip-path="url(#8d4eba1bf9)"><path fill="#ea7e16" d="M 166.324219 187.75 C 168.027344 186.757812 173.382812 187.75 175.277344 187.75 C 176.703125 187.75 178.890625 187.363281 180.269531 187.75 C 181.367188 188.054688 183.894531 190.214844 181.085938 190.214844 C 177.933594 190.214844 174.78125 190.214844 171.628906 190.214844 C 170.652344 190.214844 161.769531 190.390625 166.324219 187.75 Z M 166.324219 183.089844 C 167.15625 182.613281 169.484375 183.089844 170.429688 183.089844 C 173.300781 183.089844 176.171875 183.089844 179.042969 183.089844 C 181.585938 183.089844 184.480469 182.726562 187 183.089844 C 187.378906 183.144531 188.140625 182.910156 188.480469 183.089844 C 189.246094 183.503906 190.808594 185.558594 188.546875 185.558594 C 184.132812 185.558594 179.714844 185.558594 175.300781 185.558594 C 174.222656 185.558594 161.566406 185.828125 166.324219 183.089844 Z M 201.003906 187.75 C 203.546875 187.75 206.4375 187.386719 208.960938 187.75 C 209.335938 187.800781 210.101562 187.566406 210.441406 187.75 C 211.207031 188.160156 212.769531 190.214844 210.507812 190.214844 C 206.089844 190.214844 201.675781 190.214844 197.261719 190.214844 C 196.183594 190.214844 183.527344 190.484375 188.285156 187.75 C 189.117188 187.269531 191.445312 187.75 192.386719 187.75 C 195.261719 187.75 198.132812 187.75 201.003906 187.75 Z M 195.746094 183.089844 C 197.449219 182.101562 202.804688 183.089844 204.699219 183.089844 C 206.121094 183.089844 208.308594 182.707031 209.6875 183.089844 C 210.789062 183.398438 213.316406 185.558594 210.507812 185.558594 C 207.355469 185.558594 204.203125 185.558594 201.046875 185.558594 C 200.074219 185.558594 191.191406 185.734375 195.746094 183.089844 Z M 218.726562 196.125 C 218.726562 184.886719 218.722656 173.644531 218.726562 162.40625 C 218.730469 152.089844 216.554688 152.757812 208.011719 152.757812 C 196.941406 152.757812 185.871094 152.757812 174.800781 152.757812 C 168.230469 152.757812 159.617188 149.832031 157.054688 157.8125 C 154.0625 167.140625 156.648438 185.25 157.054688 195.085938 C 157.296875 200.890625 158.164062 202.597656 160.359375 202.84375 C 160.359375 204.324219 160.359375 205.804688 160.359375 207.285156 C 160.355469 210.859375 162.203125 210.628906 169.46875 210.628906 C 178.878906 210.628906 188.292969 210.628906 197.703125 210.628906 C 203.289062 210.628906 210.613281 211.640625 212.792969 208.875 C 214.222656 207.058594 214.152344 204.277344 213.757812 201.589844 C 216.636719 200.757812 218.835938 199.148438 218.726562 196.125 " fill-opacity="1" fill-rule="nonzero"/></g><g clip-path="url(#14df52ddd8)"><path fill="#110f0d" d="M 230.367188 125.484375 C 230.367188 126.015625 229.9375 126.445312 229.40625 126.445312 L 222.242188 126.445312 C 222.3125 125.808594 222.324219 125.164062 222.273438 124.523438 L 229.40625 124.523438 C 229.9375 124.523438 230.367188 124.953125 230.367188 125.484375 Z M 144.628906 124.523438 L 152.671875 124.523438 C 152.546875 125.164062 152.472656 125.808594 152.464844 126.445312 L 144.628906 126.445312 C 144.097656 126.445312 143.664062 126.015625 143.664062 125.484375 C 143.664062 124.953125 144.097656 124.523438 144.628906 124.523438 Z M 214.964844 202.875 C 214.964844 203.410156 214.535156 203.839844 214.003906 203.839844 L 160.359375 203.839844 C 159.828125 203.839844 159.398438 203.410156 159.398438 202.875 C 159.398438 202.347656 159.828125 201.914062 160.359375 201.914062 L 214.003906 201.914062 C 214.535156 201.914062 214.964844 202.347656 214.964844 202.875 Z M 195.417969 116.699219 C 195.535156 116.644531 195.640625 116.574219 195.726562 116.480469 C 196.421875 115.75 197.277344 115.28125 198.257812 115.09375 C 198.636719 115.019531 199.019531 114.984375 199.402344 114.984375 C 202.925781 114.984375 206.695312 117.882812 208.011719 120.90625 C 208.757812 122.632812 208.742188 124.53125 207.957031 126.25 C 207.074219 128.195312 205.277344 129.757812 203.152344 130.429688 C 198.710938 131.839844 194.730469 129.863281 193.246094 125.515625 C 192.125 122.226562 192.636719 117.921875 195.417969 116.699219 Z M 200.382812 132.800781 C 201.464844 132.800781 202.589844 132.625 203.734375 132.261719 C 206.410156 131.414062 208.589844 129.515625 209.710938 127.046875 C 210.71875 124.824219 210.742188 122.375 209.773438 120.140625 C 208.023438 116.109375 202.710938 112.269531 197.894531 113.203125 C 196.570312 113.460938 195.417969 114.070312 194.46875 115.015625 C 190.785156 116.785156 190.019531 122.019531 191.425781 126.136719 C 192.859375 130.347656 196.316406 132.800781 200.382812 132.800781 Z M 169.585938 116.699219 C 169.703125 116.644531 169.808594 116.574219 169.894531 116.480469 C 170.589844 115.75 171.445312 115.28125 172.425781 115.09375 C 172.800781 115.019531 173.183594 114.984375 173.570312 114.984375 C 177.09375 114.984375 180.863281 117.882812 182.175781 120.90625 C 182.925781 122.632812 182.90625 124.53125 182.125 126.25 C 181.242188 128.195312 179.445312 129.757812 177.320312 130.429688 C 172.875 131.839844 168.894531 129.863281 167.414062 125.515625 C 166.292969 122.226562 166.800781 117.921875 169.585938 116.699219 Z M 174.546875 132.800781 C 175.632812 132.800781 176.757812 132.625 177.902344 132.261719 C 180.578125 131.414062 182.753906 129.515625 183.875 127.046875 C 184.886719 124.824219 184.910156 122.375 183.941406 120.140625 C 182.191406 116.109375 176.882812 112.269531 172.058594 113.203125 C 170.738281 113.460938 169.585938 114.070312 168.636719 115.015625 C 164.953125 116.785156 164.1875 122.019531 165.59375 126.136719 C 167.027344 130.347656 170.484375 132.800781 174.546875 132.800781 Z M 167.285156 161.390625 L 209.546875 161.390625 L 209.546875 176.59375 L 167.285156 176.59375 Z M 165.363281 160.429688 L 165.363281 177.558594 C 165.363281 178.085938 165.792969 178.519531 166.324219 178.519531 L 210.507812 178.519531 C 211.039062 178.519531 211.46875 178.085938 211.46875 177.558594 L 211.46875 160.429688 C 211.46875 159.898438 211.039062 159.46875 210.507812 159.46875 L 166.324219 159.46875 C 165.792969 159.46875 165.363281 159.898438 165.363281 160.429688 " fill-opacity="1" fill-rule="nonzero"/></g></svg>